<?xml version="1.0" standalone="no"?>
<!DOCTYPE svg PUBLIC "-//W3C//DTD SVG 20010904//EN"
 "http://www.w3.org/TR/2001/REC-SVG-20010904/DTD/svg10.dtd">
<svg version="1.0" xmlns="http://www.w3.org/2000/svg"
 width="454.000000pt" height="626.000000pt" viewBox="0 0 454.000000 626.000000"
 preserveAspectRatio="xMidYMid meet">
<metadata>
Created by potrace 1.16, written by Peter Selinger 2001-2019
</metadata>
<g transform="translate(0.000000,626.000000) scale(0.100000,-0.100000)"
fill="#000000" stroke="none">
<path d="M230 5720 l0 -540 615 0 615 0 0 540 0 540 -615 0 -615 0 0 -540z
m540 -143 c0 -8 7 -29 17 -47 16 -32 15 -34 -7 -52 -27 -22 -45 -23 -62 -4
-11 12 -16 12 -31 -2 -14 -12 -22 -14 -36 -5 -11 7 -23 8 -35 1 -21 -12 -46 6
-46 32 0 10 12 32 26 49 21 26 32 30 70 29 24 0 44 -2 44 -5 0 -2 -9 -22 -21
-44 -11 -22 -19 -45 -17 -50 4 -11 78 85 78 101 0 5 5 10 10 10 6 0 10 -6 10
-13z m270 -1 c0 -2 -12 -25 -26 -50 -15 -26 -23 -50 -19 -54 6 -7 17 5 74 78
17 23 30 30 50 28 22 -3 26 -8 26 -34 l0 -32 32 37 c26 30 34 34 50 25 13 -8
23 -8 35 0 13 8 21 7 30 -2 10 -10 9 -20 -10 -52 -26 -45 -13 -63 17 -24 12
15 23 25 26 23 5 -6 -43 -59 -53 -59 -4 0 -14 5 -22 10 -15 9 -15 9 16 85 14
36 -25 -4 -47 -47 -11 -21 -26 -38 -34 -38 -20 0 -19 8 10 58 28 49 18 57 -15
10 -22 -32 -82 -78 -101 -78 -5 0 -14 9 -21 20 -12 19 -13 19 -35 -2 -27 -25
-49 -19 -56 18 -6 33 27 84 55 84 10 0 18 -2 18 -4z"/>
<path d="M2128 5916 c-59 -16 -76 -30 -95 -78 -15 -39 -16 -39 -62 -34 -34 4
-38 3 -16 -3 l30 -8 -40 -7 c-68 -13 -72 -16 -86 -49 -21 -49 -16 -134 10
-202 17 -43 24 -83 25 -142 0 -46 2 -83 3 -83 0 0 17 22 37 49 50 70 78 101
91 101 17 0 45 -34 45 -54 0 -15 6 -12 35 13 20 17 47 31 60 31 32 0 65 33 65
65 0 14 6 28 14 31 14 5 105 -39 119 -59 6 -8 7 -6 3 5 -4 13 3 19 28 24 89
16 137 84 142 199 2 39 1 62 -2 52 -5 -15 -11 -7 -29 32 -21 45 -37 66 -34 44
5 -31 -4 -32 -17 -3 -16 34 -16 34 -27 13 -15 -33 -34 -29 -113 21 -80 51
-120 60 -186 42z m47 -160 c21 -14 37 -16 76 -11 52 7 59 2 32 -27 -15 -17
-15 -18 11 -18 15 0 29 -7 32 -15 4 -9 19 -15 36 -15 26 0 28 -3 22 -22 l-6
-21 33 19 c19 11 41 34 49 52 17 36 35 43 25 10 -18 -62 -97 -118 -165 -118
l-35 1 30 25 30 25 -29 -7 c-24 -6 -28 -4 -23 9 4 12 -1 17 -21 19 -19 2 -28
10 -30 26 -3 16 -10 22 -29 22 -14 0 -38 11 -53 24 -16 13 -47 26 -69 30 -23
3 -41 10 -41 14 0 14 96 -3 125 -22z"/>
<path d="M1940 5103 c-25 -16 -69 -42 -98 -58 -29 -16 -84 -61 -121 -101 -74
-78 -104 -142 -103 -218 4 -171 1 -240 -14 -310 -9 -47 -14 -100 -11 -128 4
-32 2 -47 -5 -45 -28 6 -172 -405 -188 -537 -8 -71 -7 -84 8 -106 32 -45 98
-67 292 -100 101 -17 187 -33 190 -35 3 -2 0 -50 -7 -107 -7 -57 -20 -168 -28
-248 -8 -80 -19 -170 -25 -200 -5 -30 -14 -98 -21 -150 -7 -61 -20 -112 -35
-142 -13 -26 -35 -84 -48 -130 -14 -46 -38 -110 -54 -143 -62 -128 -93 -198
-128 -292 -64 -170 -164 -474 -189 -573 -13 -53 -36 -126 -50 -163 -14 -37
-25 -71 -25 -76 0 -10 124 -91 140 -91 15 0 12 -45 -5 -87 -8 -20 -13 -38 -11
-41 8 -7 36 68 36 95 0 21 3 23 23 17 12 -5 35 -8 52 -9 28 0 30 3 38 50 10
61 57 216 104 345 90 247 316 798 373 910 21 41 50 118 65 170 55 196 132 374
222 515 25 39 47 71 48 73 9 10 109 -78 125 -108 23 -45 86 -259 99 -336 6
-32 20 -119 31 -193 13 -78 38 -183 60 -249 21 -63 36 -121 34 -127 -3 -7 4
-47 15 -90 12 -44 21 -88 21 -99 0 -12 9 -61 19 -111 11 -49 24 -124 30 -165
5 -41 23 -165 40 -275 29 -193 31 -201 59 -225 33 -28 41 -70 48 -240 1 -47 6
-155 9 -240 9 -226 25 -280 81 -280 15 0 24 -6 24 -15 0 -9 9 -15 25 -15 28 0
30 9 15 60 -18 61 -30 222 -22 295 7 65 8 59 15 -90 4 -88 10 -175 13 -193 6
-30 9 -33 38 -30 l31 3 6 75 c3 41 9 83 13 93 5 11 1 41 -12 80 -11 34 -23 99
-26 144 -4 46 -11 95 -17 110 -5 15 -12 52 -14 83 -2 31 -13 77 -26 103 -21
43 -22 48 -6 59 15 12 15 25 2 183 -8 94 -17 238 -20 320 -3 83 -12 193 -20
245 -13 87 -19 147 -45 455 -21 247 -33 355 -63 568 l-32 228 27 47 c23 39 28
59 28 116 0 63 -4 75 -50 161 -27 51 -50 105 -50 121 0 20 -3 25 -9 16 -5 -9
-36 39 -95 152 -49 91 -90 166 -93 166 -2 0 34 -74 80 -164 95 -184 95 -182
10 -192 l-49 -6 -37 61 c-21 33 -40 61 -43 61 -3 0 -2 -5 2 -12 5 -7 3 -8 -5
-4 -7 5 -10 15 -7 23 3 8 1 11 -4 8 -5 -3 -26 27 -46 67 -20 40 -61 108 -91
151 -31 43 -53 80 -50 83 2 2 -11 21 -29 41 -19 20 -34 42 -34 48 0 16 97 146
131 175 44 38 47 73 11 107 -17 16 -32 43 -36 63 -3 20 -22 59 -41 88 -20 31
-37 71 -40 95 -2 23 -12 103 -20 177 -17 145 -31 187 -77 225 -33 28 -35 28
-133 31 -38 1 -95 5 -125 9 -50 6 -59 4 -100 -22z m182 -80 c-97 -144 -346
-599 -336 -615 4 -7 3 -8 -4 -4 -7 4 -12 5 -12 2 0 -2 -3 -11 -6 -20 -5 -14 5
-16 69 -16 73 0 107 -13 71 -27 -10 -4 -19 -2 -22 5 -2 7 -13 12 -23 12 -11 0
-17 -4 -14 -10 8 -13 -12 -12 -57 4 -21 8 -38 12 -38 11 0 -2 -3 -10 -6 -19
-5 -12 1 -16 22 -17 28 -1 28 -1 -6 -9 -53 -13 -72 -57 -36 -82 16 -11 56 -10
56 2 0 6 -11 8 -25 4 -19 -5 -25 -2 -25 10 0 10 6 13 15 10 9 -4 29 -1 46 6
33 14 54 4 44 -22 -4 -10 -14 -14 -28 -11 -28 7 -11 -13 18 -21 11 -3 -7 -3
-40 0 -33 3 -64 9 -70 12 -5 4 -20 5 -32 4 -11 -2 -24 1 -27 6 -3 6 -15 8 -26
5 -27 -7 -26 21 3 72 48 83 439 710 449 720 20 19 -16 -42 -229 -389 -213
-347 -222 -365 -176 -366 7 0 19 14 28 30 9 17 13 30 10 30 -9 0 60 125 370
663 13 21 26 39 31 39 5 0 15 9 22 19 7 11 15 19 18 19 3 0 -13 -26 -34 -57z
m-51 -495 c0 -10 2 -10 6 0 7 17 63 16 63 -2 0 -7 -5 -27 -11 -45 -10 -29 -13
-31 -47 -25 -25 5 -33 4 -28 -5 4 -6 15 -11 24 -11 12 -1 10 -5 -8 -15 -23
-13 -23 -14 -5 -15 11 -1 14 -4 8 -7 -7 -2 -13 -9 -13 -14 0 -6 5 -7 10 -4 6
3 10 1 10 -4 0 -15 -50 -14 -51 2 0 10 -2 10 -6 0 -2 -7 -11 -13 -19 -13 -13
0 -16 -7 -13 -26 2 -16 -32 -24 -105 -24 -44 0 -77 3 -73 6 3 4 39 7 78 8 60
1 73 4 75 18 1 10 -3 21 -8 25 -7 3 -8 1 -4 -5 5 -8 0 -12 -13 -12 -23 0 -29
25 -8 33 9 4 9 6 0 6 -6 1 -15 -3 -18 -9 -8 -13 -45 -13 -45 -1 0 5 -8 12 -17
15 -10 3 -4 4 14 2 18 -1 30 1 27 6 -3 4 14 8 38 8 24 0 53 3 66 6 22 6 21 7
-10 36 l-33 30 43 -6 c42 -6 43 -6 26 11 -17 17 -17 18 9 21 15 2 25 8 22 13
-4 5 -1 9 4 9 6 0 11 -6 12 -12z m-267 -429 c14 -11 26 -25 26 -32 0 -6 -9 -1
-20 11 -24 26 -52 28 -74 6 -21 -20 -20 -43 1 -66 23 -25 48 -22 72 8 12 15
21 21 21 14 0 -23 -32 -50 -58 -50 -24 0 -25 -2 -19 -50 14 -120 58 -188 137
-211 32 -10 48 -9 81 1 54 18 119 77 153 139 l28 52 -26 24 c-31 29 -33 58 -6
85 30 30 80 22 94 -17 6 -16 5 -16 -13 1 -37 34 -100 -1 -75 -41 15 -25 52
-28 75 -7 18 17 19 17 13 1 -3 -10 -15 -22 -25 -27 -10 -6 -23 -29 -30 -53
-30 -112 -120 -216 -208 -237 -93 -22 -167 20 -217 125 -21 42 -24 64 -23 140
1 50 -2 102 -6 117 -8 32 8 66 38 78 31 12 31 12 61 -11z m181 -140 c119 -32
111 -127 -11 -137 -100 -8 -185 53 -147 107 27 40 83 50 158 30z m938 -451
c32 -58 37 -75 37 -133 0 -60 -4 -74 -37 -129 -39 -63 -59 -59 -28 6 15 32 15
33 -2 9 -10 -14 -26 -34 -36 -45 -18 -20 -18 -20 -12 -1 6 20 6 20 -13 0 -13
-14 -16 -22 -8 -27 7 -5 4 -8 -7 -8 -15 0 -17 5 -11 23 5 12 8 33 7 46 -1 16
2 20 7 11 14 -22 30 24 29 82 l0 53 -13 -45 c-11 -42 -44 -111 -47 -100 0 3
-2 25 -4 50 -2 33 0 40 6 25 6 -13 8 1 5 45 -2 45 -12 82 -30 117 -36 72 -35
93 7 93 17 1 46 7 62 14 35 15 31 18 88 -86z"/>
<path d="M1251 1139 c-17 -34 -31 -72 -31 -83 0 -12 -9 -39 -19 -60 -11 -20
-22 -67 -25 -104 -4 -37 -13 -97 -22 -134 -10 -41 -14 -84 -10 -110 3 -24 9
-70 12 -103 7 -68 21 -85 71 -85 18 0 33 -4 33 -9 0 -6 9 -9 20 -8 11 1 20 7
20 13 0 7 11 14 24 18 14 3 32 23 47 50 22 43 23 47 12 164 -6 73 -7 141 -2
174 5 29 10 84 11 122 2 64 1 70 -25 92 -36 31 -68 30 -106 -2 -40 -34 -40
-15 0 61 17 31 28 59 26 62 -3 2 -19 -24 -36 -58z"/>
</g>
</svg>
