<?xml version="1.0" encoding="utf-8"?>
<!-- Generator: Adobe Illustrator 22.0.0, SVG Export Plug-In . SVG Version: 6.00 Build 0)  -->
<svg version="1.1" id="Calque_1" xmlns="http://www.w3.org/2000/svg" xmlns:xlink="http://www.w3.org/1999/xlink" x="0px" y="0px"
	 viewBox="0 0 432 432" style="enable-background:new 0 0 432 432;" xml:space="preserve">
<style type="text/css">
	.st0{fill:#066938;}
	.st1{fill:#9F1E29;}
	.st2{fill:#571419;}
	.st3{fill:none;}
	.st4{fill:#C68448;}
	.st5{fill:#8C633A;}
	.st6{fill:#D79A5D;}
	.st7{fill:#A5C0DF;}
	.st8{fill:#36502D;}
	.st9{fill:#C8261D;}
	.st10{fill:#808181;}
	.st11{fill:#519C37;}
	.st12{fill:#FCEE69;}
	.st13{fill:#EC8C37;}
	.st14{fill:#5877B1;}
	.st15{fill:#7B1523;}
	.st16{fill:#4F0D1C;}
	.st17{fill:#BF333D;}
	.st18{fill:#E7373D;}
	.st19{fill:#972021;}
	.st20{fill:#F2F2F2;}
	.st21{fill:#F3D4AA;}
	.st22{fill:#A67D52;}
	.st23{fill:#B59063;}
	.st24{fill:#020203;}
	.st25{fill:#FFFFFF;}
	.st26{fill:#E7E6E6;}
	.st27{fill:#9A9999;}
	.st28{fill:#B4B4B4;}
	.st29{fill:#C9913E;}
	.st30{fill:#D6A14D;}
	.st31{fill:#E2A1BC;}
	.st32{fill:#C1292E;}
	.st33{fill:#82171C;}
	.st34{fill:#CDCCCC;}
	.st35{fill:#D06C5D;}
	.st36{fill:#79986F;}
	.st37{fill:#DAA405;}
	.st38{fill:#EDCBA9;}
	.st39{fill:#405045;}
	.st40{fill:#8B2F2F;}
	.st41{fill:#1D2E1C;}
	.st42{fill:#D4BB78;}
	.st43{fill:#3C1014;}
	.st44{fill:#731633;}
	.st45{fill:#3F0D26;}
	.st46{fill:#E3EBF8;}
	.st47{fill:#D2DFEF;}
	.st48{fill:#B88E5C;}
	.st49{fill:#A81735;}
	.st50{fill:#4AA8A8;}
	.st51{fill:#94B947;}
	.st52{fill:#A8C4D3;}
	.st53{fill:#9F1A18;}
	.st54{fill:#4F6325;}
	.st55{fill:#BAC463;}
	.st56{fill:#8C694B;}
	.st57{fill:#8A9A66;}
	.st58{fill:#DDDDC3;}
	.st59{fill:#3F668A;}
	.st60{fill:#1B1B1B;}
	.st61{fill:#FFF0BA;}
	.st62{fill:#C69C6C;}
	.st63{fill:#603914;}
	.st64{fill:#114923;}
	.st65{fill:#961F27;}
	.st66{fill:#BB870E;}
	.st67{fill:#C51720;}
	.st68{fill:#449494;}
	.st69{fill:#417675;}
	.st70{fill:#ABCFAF;}
	.st71{fill:#66B2B0;}
	.st72{fill:#F9B03D;}
	.st73{fill:#754D24;}
	.st74{fill:#F6F6F6;}
	.st75{fill:#BA181A;}
	.st76{fill:#AD191C;}
	.st77{fill:#161515;}
	.st78{fill:#1E1E1C;}
	.st79{fill:#0E472B;}
	.st80{fill:#D3C29D;}
	.st81{fill:#CC2717;}
	.st82{fill:#A81916;}
	.st83{fill:#805129;}
	.st84{fill:#F39323;}
	.st85{fill:#B56B20;}
	.st86{fill:#E52629;}
	.st87{fill:#7B9EC7;}
	.st88{fill:#48515A;}
	.st89{fill:#DED3C6;}
	.st90{fill:#3B444E;}
	.st91{fill:#6189B1;}
	.st92{fill:#97B8D7;}
	.st93{fill:#715038;}
	.st94{fill:#A3282E;}
	.st95{fill:#110506;}
	.st96{fill:#F3E4D4;}
	.st97{fill:#F4DCC9;}
	.st98{fill:#676767;}
	.st99{fill:#E0EDF3;}
	.st100{fill:#90443F;}
	.st101{fill:#989389;}
	.st102{fill:#F0DABE;}
	.st103{fill:#4F382A;}
	.st104{fill:#009245;}
	.st105{fill:#064928;}
</style>
<g>
	<path class="st28" d="M221.3,91.6c5,0.6,9.4,2.6,13.8,4.7c6.2,2.9,12.2,6.1,18,9.6c0.2,0.1,0.3,0.2,0.5,0.3
		c1.2,0.8,1.5,1.2,1.1,2.7c-0.2,1-0.5,2-0.9,3c-1.3,3.5-3.2,6.6-5.3,9.7c-0.1,0.2-0.3,0.3-0.5,0.5c-1.7-0.6-3.4-1.1-5-1.6
		c-5.1-1.5-10.2-2.6-15.5-3.5c-3.2-0.5-6.4-0.3-9.6,0c-4.6,0.4-8.9,2-13.1,4c-2.4,1.1-4.6,2.4-7,3.7c-0.8,0.4-1.6,0.9-2.4,1.3
		c-0.9,0.5-1.7,0.3-2.4-0.4c-1.7-1.6-2.9-3.5-3.7-5.7c-1.3-3.4-1.8-6.8-1.3-10.4c0.1-0.9,0.4-1.7,0.7-2.5c0.3-1,0.9-1.7,1.8-2.3
		c5.6-3.7,11.2-7.4,17.2-10.4c2.2-1.1,4.5-1.9,7-2.4c0.2,0,0.3-0.1,0.6-0.2c0-0.8-0.1-1.6-0.1-2.3c-0.1-2.7-0.3-5.5-0.4-8.2
		c-0.1-1.3,0.2-2.5,0.6-3.7c0.5-1.4,1.3-2.4,2.4-3.3c1.4-1.2,2.8-2.4,4.1-3.7c2.5-2.5,4.3-5.5,4.9-9.1c0.4-2.4,0.1-4.7-1-6.9
		c-1.5-2.9-3.7-5.3-6.6-6.8c-2-1-4-1.2-6.1-0.7c-1.9,0.5-3.7,1.3-5.2,2.6c-1.6,1.3-2.4,3-2.6,4.9c-0.1,0.6-0.1,1.1-0.2,1.7
		c-0.3,1.4-1.4,2.3-2.7,2.2c-1.3-0.1-2.4-1-2.5-2.5c0-0.7,0-1.4,0.2-2c1-4,2.8-7.4,6-10.1c2.6-2.2,5.7-3.1,9.1-2.8
		c2.6,0.2,5.2,0.9,7.5,2.2c2.2,1.2,4,2.7,5.4,4.8c1.6,2.3,3.1,4.7,3.7,7.5c0.8,3.9,0.2,7.8-0.8,11.5c-0.8,2.8-2.3,5.2-4.2,7.2
		c-1.5,1.6-3.1,3.1-4.8,4.5c-0.7,0.6-1,1.2-0.9,2.1c0.1,3.3,0.1,6.5,0.2,9.8C221.2,91,221.2,91.2,221.3,91.6z"/>
	<g>
		<path class="st35" d="M321.9,160.3c1.4,5.2,2.8,10.1,4.1,15.1c-0.2,0.1-0.3,0.2-0.5,0.3c-2.2,0.8-3.9,2.3-5.3,4.1
			c-1.6,2-2.8,4.2-3.8,6.6c-0.9,2.1-1.7,4.2-2.7,6.3c-0.5,1.2-1.2,2.3-1.8,3.3c-0.8,1.3-2,2.3-3.3,3c-1,0.6-2.1,0.8-3.2,0.6
			c-1.7-0.3-2.7-1.7-2.4-3.4c0.3-1.6,1.8-3.1,3.4-3.4c0.5-0.1,1-0.1,1.3,0.3c0.3,0.4,0.1,0.8-0.1,1.2c-0.4,1-0.3,1.6,0.3,1.8
			c0.7,0.3,1.2,0,1.7-1c1.1-2.3-0.1-4.5-2.6-4.6c-3.5-0.2-6.7,3.4-6.2,6.8c0.4,2.4,2,4,4.4,4.3c1.6,0.2,3-0.1,4.4-0.9
			c1.8-1,3.3-2.3,4.3-4c0.8-1.4,1.6-2.8,2.3-4.3c0.9-2,1.7-4.1,2.6-6.1c1-2.2,2.3-4.3,3.9-6.1c1.3-1.4,2.6-2.2,4.1-2.6
			c1.6,4.6,3.2,9.2,4.8,13.8c0,0.1,0,0.2-0.1,0.2c-6.5,7.2-13,14.3-20.2,20.8c-4.5,4-9.1,7.7-14.4,10.6c-0.7,0.4-1.3,0.6-2.1,1
			c-0.4-1.5-0.8-2.9-1.2-4.3c-0.1,0-0.2,0-0.2,0c0.1,3.2,0.2,6.5,0.3,9.8c-0.4,0.1-0.8,0.3-1.2,0.4c-4.4,1.3-9,2.1-13.5,2.8
			c-10.7,1.7-21.5,2.1-32.2,2.4c-11.6,0.3-23.2,0.2-34.7-0.2c-5.6-0.2-11.3-0.5-16.9-0.8c-5.8-0.2-11.7-0.4-17.5-0.6
			c-5.3-0.2-10.6-0.5-16-0.8c-2.7-0.2-5.3-0.3-8-0.6c-1.8-0.2-3.5-0.7-5.2-1.1c-1.2-0.3-1.3-0.6-1.2-1.8c0.3-4.1,0.6-8.3,0.8-12.4
			c0.3-4.1,0.5-8.3,0.7-12.4c0-0.2,0-0.4,0.1-0.6c3.8-1.5,7.3-0.8,10,2.3c0.9,1,1.6,2.3,2.3,3.5c0.8,1.5,1.4,3.1,2.3,4.6
			c1,1.8,2.1,3.6,3.3,5.4c1,1.4,2.4,2.6,3.9,3.4c1.5,0.8,3.1,1.2,4.8,1c3.7-0.4,6.7-4.5,5.9-8c-0.4-1.9-1.8-3.2-3.7-3.6
			c-1.7-0.3-3.7,0.6-4.6,2.1c-0.7,1.1-0.6,2.3-0.1,3.4c0.3,0.5,0.8,0.7,1.3,0.6c0.5-0.2,0.8-0.6,0.7-1.2c0-0.1,0-0.2-0.1-0.2
			c-0.4-0.7-0.3-1.4,0.4-1.9c0.7-0.5,1.5-0.8,2.3-0.5c1.1,0.4,1.8,1.5,1.7,2.9c-0.3,3.1-3.2,5.1-6.2,4.2c-1.4-0.4-2.6-1.1-3.5-2.2
			c-1-1.2-2.1-2.4-2.9-3.8c-1.1-1.8-1.9-3.7-2.8-5.5c-0.8-1.4-1.5-2.9-2.4-4.3c-2-2.8-4.6-4.6-8.1-5c-1.1-0.1-2.3,0.1-3.4,0.2
			c-0.3,0-0.5,0.1-0.9,0.2c0-1.4,0-2.7,0-4c-0.8,2.9-1.2,5.8-1.7,8.8c-0.9,0-1.7-0.1-2.5,0c-2.1,0.3-4.2,0.7-6.4,1
			c-0.9,0.1-1.7,0.4-2.6,0.6c-2.9,0.5-5.2-0.9-6.1-3.7c-0.5-1.8-0.4-3.5,0.6-5.1c1.2-1.9,4.2-2.5,6-1.3c1.3,0.9,1.3,2.2-0.1,3
			c-0.8,0.5-1.5,0.6-2.2-0.1c-0.6-0.6-1.3-0.5-1.7,0c-0.4,0.5-0.3,1,0.3,1.6c1.2,1.2,2.3,1.4,3.9,0.8c0.3-0.1,0.6-0.3,0.9-0.4
			c2.7-1.6,2.8-4.9,0.2-6.6c-2.3-1.5-6-1.3-8,0.6c-3.9,3.6-2.8,11.3,2.6,13.1c1.2,0.4,2.3,0.5,3.5,0.3c1.1-0.2,2.2-0.5,3.4-0.7
			c1.9-0.3,3.8-0.6,5.8-0.9c0.6-0.1,1.2,0,2,0.1c-0.4,3.4-0.8,6.6-1.2,9.9c-1.1-0.2-2.2-0.4-3.2-0.7c-12-3.8-23.3-9.1-33.3-17
			c-0.2-0.2-0.5-0.4-0.7-0.6c-0.6-0.4-0.7-0.9-0.5-1.6c0.6-2.2,1.2-4.4,1.8-6.6c1.2-4.3,2.4-8.5,3.6-12.8c0.3-1.2,0.3-1.2,1.5-1.3
			c3.6-0.4,6.6,0.8,9.1,3.3c1.5,1.5,2.3,3.3,2.5,5.4c0.2,2.4-1.7,5-4,5.6c-1.7,0.4-3.6-0.8-4-2.4c-0.2-0.6-0.1-1.1,0.4-1.5
			c0.5-0.5,1.2-0.7,1.9-0.5c0.4,0.1,0.8,0.3,1.2,0.5c0.7,0.2,1.3,0,1.5-0.6c0.2-0.5,0-1-0.6-1.4c-1.5-0.8-3-1.1-4.5-0.3
			c-1.7,1-2.5,2.8-1.7,4.7c1.3,3.2,4.9,4.9,8.2,2.9c3.3-2,4.6-5.1,3.6-8.9c-1.2-4.7-5.9-8.6-11-8.9c-0.9-0.1-1.9,0-3,0
			c1.4-5.1,2.8-10.1,4.2-15.4c0.4,0.4,0.7,0.6,1,0.9c4.8,4.7,9.9,9.3,15.3,13.3c11.9,8.9,25.2,15,39.6,18.6c8.9,2.2,18,3.7,27.2,4.6
			c12.5,1.2,25.1,1.4,37.7,0.6c14.1-0.8,28-2.9,41.5-7.1c11.1-3.4,21-9,29.5-17c4.1-3.9,7.6-8.3,10.9-12.8
			C321.3,161.1,321.5,160.8,321.9,160.3z M263.2,216.9c-0.3-0.1-0.5-0.2-0.7-0.2c-0.5-0.1-0.9,0-1.1,0.5c-0.3,0.5-0.3,1,0.1,1.3
			c0.3,0.3,0.6,0.5,1,0.6c0.9,0.3,1.6,0,2.3-0.6c1-1,1.2-2.6,0.4-4c-1.2-2-4-2.8-6.2-1.6c-2.9,1.6-5,6.5-1.4,10.1
			c2.5,2.4,6.4,3.1,9.6,1.7c1.4-0.6,2.6-1.6,3.6-2.7c2.1-2.2,3.7-4.7,5.4-7.1c1.2-1.7,2.3-3.4,3.6-5c1.1-1.3,2.3-2.5,3.6-3.6
			c1.9-1.6,4.3-2.5,6.8-2.6c1.9-0.1,3.5,0.5,4.7,2.1c1.9,2.4,0.6,5-2.2,5.6c-1.2,0.3-2.1-0.3-2.6-1.5c0.2-0.1,0.4-0.3,0.5-0.4
			c0.2-0.1,0.4-0.2,0.6-0.3c0.6-0.4,0.7-0.9,0.4-1.4c-0.3-0.5-0.8-0.7-1.3-0.5c-0.5,0.2-1,0.5-1.5,0.8c-1,0.7-1.2,1.6-0.9,2.7
			c0.5,1.4,1.5,2.3,3,2.7c2.3,0.6,4.3-0.3,5.8-2c1.4-1.7,1.6-3.6,0.7-5.6c-1.4-3-3.9-4.3-7.2-4.2c-3.3,0.1-6.1,1.2-8.6,3.3
			c-1.8,1.5-3.4,3.2-4.7,5c-1.4,2-2.7,4-4.1,6c-1.2,1.7-2.5,3.4-4,4.9c-0.7,0.8-1.7,1.5-2.7,1.9c-2.3,1.1-5.2,0.6-7.1-1.2
			c-2-2-1.7-5.2,0.8-6.6c1-0.6,2.2-0.5,3,0.3C263.3,215.7,263.6,216.2,263.2,216.9z M220.4,212c-0.4,0-0.7,0-1.1,0
			c-3,0.3-5.5,2.2-6.2,4.8c-0.6,2.2,0.4,4.2,2.5,5c1.9,0.7,4.3-0.2,5.3-1.9c0.4-0.7,0.5-1.4,0.3-2.2c-0.2-0.8-0.6-1.2-1.2-1.1
			c-0.6,0-1,0.5-1,1.4c0,0.4,0,0.8-0.2,1.1c-0.5,0.8-1.8,1.1-2.7,0.6c-1-0.5-1.3-1.3-0.9-2.4c0.5-1.5,1.7-2.4,3.1-2.8
			c2.5-0.7,4.8-0.3,6.9,1.4c0.6,0.5,1.2,1.2,1.8,1.7c1.8,1.8,3.6,3.7,5.5,5.5c2.7,2.4,5.8,4,9.4,4.6c2.3,0.4,4.4,0.1,6.5-0.9
			c2.3-1.2,3.8-3,4.3-5.6c0.6-2.9-0.6-5.9-2.9-7.3c-2.6-1.6-5.9-0.5-7,2.2c-0.7,1.6-0.1,3.5,1.3,4.4c0.5,0.3,1.1,0.5,1.7,0.5
			c0.7,0.1,1.2-0.4,1.3-1c0.1-0.6-0.3-1-1.1-1.2c-1-0.2-1.5-0.9-1.2-1.8c0.3-0.9,0.9-1.6,1.9-1.7c1.3-0.2,2.3,0.3,3.1,1.4
			c1.6,2.2,1,5.6-1.3,7.4c-1.8,1.4-4,1.8-6.2,1.4c-2.5-0.5-4.8-1.4-6.8-2.9c-1.3-1-2.6-2.1-3.8-3.3c-1.4-1.4-2.8-2.9-4.1-4.3
			C225.6,212.9,223.2,212,220.4,212z M216.5,229.9c1.1-0.2,2.3-0.4,3.3-0.8c2.2-0.7,3.8-2.4,5.5-3.9c0.1-0.1,0.2-0.2,0.2-0.3
			c0.2-0.4,0.2-0.9-0.1-1.2c-0.3-0.2-0.7-0.3-1.1-0.3c-0.3,0-0.6,0.3-0.8,0.5c-0.7,0.6-1.4,1.3-2.2,1.8c-2.3,1.8-4.8,2.2-7.5,1.3
			c-1.7-0.5-3.1-1.4-4.2-2.8c-0.9-1.1-1.7-2.2-2.5-3.4c-1-1.6-1.9-3.2-2.8-4.9c-1.2-2-2.4-3.9-4.1-5.6c-2.3-2.2-5-3.4-8.3-3.2
			c-3.6,0.3-6.4,2.8-6.9,6.1c-0.4,2.5,1,5.1,3.2,6.1c2.3,1,5.1,0.3,6.7-1.6c0.8-1,1.2-2.1,1-3.3c-0.2-1.5-1.4-2.7-2.7-2.7
			c-0.8,0-1.2,0.4-1.3,0.9c-0.1,0.6,0.2,1,1,1.2c0.7,0.2,1,0.6,0.9,1.3c-0.1,0.4-0.2,0.9-0.5,1.2c-0.8,1.1-1.9,1.5-3.3,1.3
			c-1.3-0.2-2.1-1-2.6-2.2c-0.7-1.7,0-3.7,1.7-5c1.6-1.2,3.4-1.4,5.2-1c2.1,0.4,3.8,1.6,5.2,3.2c1.2,1.5,2.2,3.1,3.2,4.7
			c1.1,1.7,2,3.5,3.1,5.2c0.8,1.3,1.8,2.5,2.8,3.5C210.8,228.6,213.4,229.7,216.5,229.9z"/>
		<path class="st36" d="M310.6,129.4c0.3,0.4,0.6,0.9,0.8,1.3c3.4,5.6,5.7,11.5,7.5,17.8c0.7,2.6,1.4,5.3,2.1,8
			c0.2,0.6,0.2,1.1-0.2,1.6c-4.9,7.1-10.2,13.7-17.1,19c-8.2,6.3-17.4,10.6-27.3,13.3c-8.9,2.4-17.9,4-27.1,5.1
			c-12.4,1.4-24.8,1.5-37.2,1c-11-0.5-21.8-1.8-32.5-4.1c-12.9-2.8-25.1-7.3-36.3-14.3c-4.4-2.7-8.6-5.7-12.5-9.1
			c-3.8-3.3-7.4-6.8-11.1-10.2c-0.5-0.4-0.7-0.9-0.5-1.6c1.7-6.4,3.4-12.8,5.7-19.1c1.8-4.9,3.8-9.7,6.7-14.1c1-1.5,2.1-2.9,3.2-4.3
			c0.1-0.1,0.2-0.2,0.5-0.4c0.1,0.5,0.2,0.8,0.3,1.2c4.8,28.2,25.5,49.1,49.4,56.9c5.7,1.9,11.5,3.1,17.4,4c9.4,1.4,18.8,2,28.3,1.7
			c10.3-0.3,20.3-1.9,29.9-5.6c11-4.2,20.6-10.6,29-18.9c8.4-8.3,15.3-17.6,20.5-28.2c0.1-0.2,0.2-0.4,0.3-0.6
			C310.3,129.6,310.4,129.5,310.6,129.4z M304.8,168C304.8,168,304.9,168,304.8,168c0-1.4-0.1-2.8-0.2-4.2c-0.1-1.2-0.5-2.3-1.8-2.8
			c-2.1-0.9-4.3-1.7-6.4-2.6c-1.8-0.7-3.1,0.2-3.9,1.7c-0.1,0.3-0.3,0.6-0.3,0.9c-0.2,2.4-0.5,4.9-0.7,7.3c0,0.3,0.1,0.5,0.1,0.8
			c0.1,0.6,0.5,1.1,1.1,1.3c2.4,1,4.8,2,7.3,2.9c0.8,0.3,1.8,0.4,2.7,0.5c1,0,1.7-0.6,1.9-1.6c0.1-0.4,0.1-0.9,0.1-1.3
			C304.8,170.1,304.8,169.1,304.8,168z M138.1,143.3c-0.6,0.4-1.2,0.6-1.6,0.9c-2.2,1.6-4.5,3.3-6.7,5c-0.5,0.4-0.8,0.8-0.7,1.4
			c0.3,1.9,0.5,3.8,0.8,5.6c0.2,1,0.3,2,0.6,2.9c0.5,1.8,1.8,2.3,3.4,1.4c1.9-1.1,3.8-2.2,5.6-3.3c0.7-0.5,1.4-1.1,2-1.6
			c1-0.9,1.2-1.9,0.8-3.1c-0.8-2.1-1.5-4.2-2.2-6.3c-0.2-0.6-0.5-1.3-0.9-1.8C139.1,144,138.6,143.7,138.1,143.3z M158.9,171.3
			c0-0.3,0-0.4-0.1-0.6c-0.8-2.2-1.5-4.4-2.4-6.6c-0.6-1.4-1.6-1.6-2.9-0.9c-1.8,0.9-3.6,1.8-5.4,2.8c-0.1,0.1-0.3,0.1-0.4,0.2
			c-1.1,0.7-1.6,1.7-1.1,2.9c0.7,2.1,1.5,4.2,2.3,6.3c0.3,0.7,0.7,1.3,1.2,1.9c0.8,1,1.7,1.1,2.7,0.3c1.3-1,2.6-2,3.9-3.1
			c0.7-0.6,1.2-1.3,1.7-2C158.7,172.2,158.8,171.7,158.9,171.3z M318.1,153.8C318.2,153.8,318.2,153.8,318.1,153.8
			c0-1.1,0-2.1-0.1-3.2c-0.1-0.7-0.4-1.3-0.9-1.7c-2-1.4-4-2.9-6-4.3c-0.4-0.3-0.9-0.5-1.4-0.7c-0.8-0.3-1.5,0-2,0.7
			c-0.3,0.4-0.5,0.8-0.6,1.3c-0.4,2.9-0.2,5.9,0,8.8c0,0.1,0,0.3,0.1,0.3c0.3,0.4,0.6,1,1,1.3c2.2,1.2,4.7,2,7.2,2.4
			c1.5,0.2,2.3-0.5,2.5-1.9C318,155.8,318.1,154.8,318.1,153.8z M283.5,179.2c0-1.5-0.2-2.2-1-2.6c-1.5-0.9-3.1-1.8-4.7-2.5
			c-1.4-0.6-2.4,0-2.7,1.4c-0.4,1.7-0.7,3.4-0.9,5.2c-0.1,0.9,0.2,1.7,1.1,2.2c1.1,0.6,2.2,1.3,3.3,2c0.6,0.3,1.3,0.6,2,0.8
			c1.2,0.3,2.1-0.2,2.3-1.4C283.1,182.4,283.3,180.6,283.5,179.2z M169.4,181.4c0.1,0.5,0.1,0.7,0.1,0.9c0.6,1.7,1.4,3.4,2.5,4.8
			c0.2,0.2,0.5,0.4,0.7,0.6c0.6,0.4,1.3,0.5,1.9,0.1c1.5-1,2.9-2.2,4.1-3.6c0.5-0.6,0.7-1.4,0.4-2.1c-0.8-2-1.6-3.9-2.9-5.6
			c-0.6-0.8-1.4-1-2.2-0.3c-1.4,1.3-2.8,2.6-4.1,4C169.7,180.5,169.5,181.1,169.4,181.4z M196.3,181.9c-0.5,0.3-1.1,0.5-1.4,0.9
			c-1.1,1.4-2.2,2.9-3.3,4.4c-0.4,0.5-0.3,1,0.1,1.4c1.4,1.7,2.9,3,4.9,3.9c0.6,0.3,1.2,0.3,1.8-0.3c1.2-1.2,2.1-2.5,2.7-4
			c0.2-0.6,0.2-1.2-0.2-1.7c-1-1.3-2.1-2.6-3.2-3.9C197.4,182.4,196.9,182.2,196.3,181.9z M263,186.9c-0.1-0.7-0.2-1.4-0.8-1.9
			c-1.1-0.8-2.1-1.7-3.3-2.4c-1.2-0.7-2.3-0.4-2.8,0.9c-0.5,1.2-0.9,2.5-1.3,3.8c-0.2,0.7,0,1.3,0.5,1.7c1.5,1.3,3.2,2,5.1,2.2
			c0.8,0.1,1.4-0.3,1.7-1C262.5,189.1,262.7,188,263,186.9z M218.4,185.2c-0.4,0.3-0.9,0.4-1.2,0.7c-0.9,1.1-1.8,2.3-2.6,3.5
			c-0.4,0.6-0.5,1.3,0,1.9c0.8,1,1.7,2,2.7,2.8c0.8,0.7,1.8,0.5,2.5-0.2c0.8-1,1.6-2,2.3-3c0.4-0.5,0.5-1.2,0.1-1.8
			c-0.8-1.1-1.7-2.1-2.5-3.1C219.4,185.6,218.9,185.4,218.4,185.2z M239,193.9c0.8,0,1.2-0.3,1.4-0.8c0.6-1.2,1.2-2.4,1.7-3.6
			c0.4-0.9,0.1-1.7-0.6-2.2c-0.8-0.6-1.5-1.1-2.4-1.6c-1.2-0.7-2.2-0.3-2.9,0.9c-0.5,0.8-0.9,1.7-1.3,2.5c-0.5,1-0.4,1.9,0.5,2.5
			c0.8,0.7,1.7,1.3,2.6,1.9C238.4,193.7,238.8,193.8,239,193.9z"/>
		<g>
			<path class="st19" d="M139.2,338.4c0.6-9.1,1.2-18,1.8-27.1c0.4,0,0.8,0.1,1,0.1c5.8,1.1,11.6,2.3,17.5,3.3
				c8.9,1.5,17.8,2.4,26.8,2.8c11.3,0.5,22.7,0.8,34,0.4c6.2-0.2,12.5-0.6,18.7-1c6.5-0.4,13-0.9,19.5-1.6c7.9-0.9,15.9-1.9,23.8-3
				c5.9-0.8,11.8-2,17.6-3.4c0.3-0.1,0.5-0.1,0.9-0.1c0.7,9.8,1.5,19.5,2.2,29.2c-1.4,0.2-2.8,0.5-4.1,0.6c-7,0.8-13.9,1.7-20.9,2.4
				c-20.2,2.2-40.5,2.7-60.8,2c-11-0.4-22-1-33-1.6c-7.3-0.4-14.5-1-21.8-1.5c-7.4-0.5-14.8-1-22.1-1.6
				C139.9,338.5,139.6,338.5,139.2,338.4z M158.7,324.7c-0.2-0.6-0.3-0.9-0.4-1.2c-0.5-1.5-1.2-2.8-2.3-4c-0.8-0.9-1.7-1.6-2.8-1.9
				c-1.9-0.5-3.4,0.7-3.2,2.6c0.1,0.8,0.4,1.7,0.8,2.5c1.1,2.1,2.3,4.1,3.5,6.1c0.8,1.4,1.7,2.7,2.6,4c0.6,0.9,1.3,1.1,2.3,0.6
				c0.5-0.2,1-0.5,1.4-0.8c2.7-2.2,4.9-5,6.5-8.1c0.4-0.7,0.6-1.6,0.7-2.4c0.2-2.2-1.7-3.6-3.8-2.9c-0.4,0.1-0.8,0.3-1.2,0.5
				c-1.3,0.7-2.2,1.8-3,3C159.5,323.3,159.1,323.9,158.7,324.7z M268.8,325.5c-0.4-0.7-0.7-1.2-1-1.7c-0.3-0.5-0.7-1-1-1.5
				c-0.7-0.9-1.5-1.7-2.5-2.1c-1.7-0.7-3.2,0.3-3.1,2.1c0,0.9,0.3,1.9,0.7,2.7c1.4,3.1,3.3,5.9,5.7,8.3c0.4,0.4,0.8,0.8,1.3,1.1
				c0.9,0.6,1.7,0.4,2.4-0.4c1.7-1.9,3.1-4,4.3-6.3c1.1-2.1,1.9-4.3,2.1-6.7c0.1-1.2-0.1-2.3-1.2-2.9c-1.1-0.7-2.2-0.2-3.1,0.5
				c-2,1.4-3.3,3.3-4.1,5.6C269.2,324.6,269,324.9,268.8,325.5z M243.5,325.9c-0.8-0.8-1.6-1.4-2.3-2.1c-0.9-0.7-1.8-1.3-3-1.5
				c-2.1-0.3-3.5,1.3-2.9,3.3c0.2,0.6,0.5,1.2,0.9,1.7c1.3,1.8,2.7,3.6,4.1,5.3c0.9,1.1,1.9,2,3,2.9c1.9,1.6,3.4,1.4,4.7-0.7
				c0.1-0.1,0.1-0.2,0.2-0.3c1.3-2.3,2.2-4.8,2.5-7.4c0.1-1,0.1-2-0.1-3c-0.2-0.9-0.5-1.8-0.9-2.5c-0.5-0.9-1.3-1.1-2.4-0.8
				c-1.5,0.4-2.4,1.5-3,2.8C244,324.3,243.8,325,243.5,325.9z M188,328.1c-0.2-0.5-0.4-0.8-0.6-1.2c-0.8-1.3-1.5-2.6-2.4-3.8
				c-0.6-0.8-1.4-1.4-2.3-1.9c-1.7-0.9-3.4,0.2-3.4,2.1c0,0.9,0.3,1.8,0.6,2.6c1.4,3.1,3.4,5.9,5.6,8.5c0.2,0.2,0.3,0.3,0.5,0.5
				c1.2,1.2,2.1,1.3,3.3,0.3c2.7-2.3,5-4.9,6.6-8.1c0.3-0.6,0.4-1.2,0.6-1.8c0.1-0.4,0.1-0.9,0.1-1.3c0-1.1-0.5-2-1.5-2.5
				c-1-0.5-2-0.4-2.9,0.3c-0.6,0.4-1.2,1-1.6,1.6c-0.8,1.1-1.4,2.4-2.2,3.6C188.4,327.4,188.2,327.7,188,328.1z M218.3,328.4
				c-0.3-0.4-0.5-0.8-0.7-1.1c-1.1-1.5-2.1-3-3.3-4.4c-0.6-0.7-1.4-1.3-2.4-1.4c-1.3-0.2-2.3,0.6-2.4,1.9c0,0.4,0,0.9,0.1,1.3
				c0.2,0.8,0.4,1.6,0.8,2.4c1.5,2.8,3,5.6,5,8.1c0.4,0.5,0.8,1,1.3,1.3c1,0.8,2.2,0.7,3.1-0.2c0.5-0.5,1-1.1,1.3-1.7
				c1-1.7,2-3.3,3-5c0.7-1.3,1.3-2.8,1.5-4.3c0.2-1.5-0.3-2.7-1.3-3.2c-1-0.5-2.3-0.2-3.3,1c-0.7,0.8-1.2,1.7-1.7,2.6
				C219,326.5,218.7,327.4,218.3,328.4z M290.6,324.7c-0.3-0.5-0.5-0.9-0.7-1.1c-0.7-1-1.5-2.1-2.2-3.1c-0.4-0.5-0.8-0.8-1.3-1.2
				c-0.7-0.4-1.4-0.6-2.1-0.1c-0.8,0.4-1.1,1.2-1,2c0,0.4,0.1,0.9,0.3,1.3c1.3,3.2,3.1,6.2,5.4,8.8c1.3,1.4,2.1,1.6,3.8,0.8
				c0.5-0.2,1-0.6,1.2-1c1-1.5,2-3.1,2.7-4.7c0.7-1.7,1.2-3.5,1.7-5.3c0.3-1,0.3-2-0.1-2.9c-0.6-1.6-2.2-2.1-3.6-1.2
				c-0.9,0.5-1.5,1.3-1.9,2.2c-0.6,1.4-1.1,2.8-1.6,4.2C290.9,323.6,290.8,324,290.6,324.7z"/>
			<path class="st19" d="M133.7,313.2c-2-0.3-3.9-0.7-5.8-1c-10.7-1.7-21.2-3.8-31.6-6.6c-6.1-1.6-12-3.7-17.8-6.3
				c-0.3-0.1-0.6-0.3-1-0.5c-0.1,0-0.1-0.1-0.2-0.2c3.1-9.4,6.3-18.8,9.5-28.3c0.4,0.2,0.8,0.4,1.3,0.6c11.2,5.1,22.6,9.5,34.5,12.9
				c4.3,1.2,8.7,2.3,13.2,2.8c0.4,0,0.7,0.1,1.2,0.2c-0.2,1.3-0.4,2.6-0.5,3.9c0,1.5-0.7,2.4-2,3.1c-1.4,0.8-2.7,1.8-3.8,3.3
				c-0.1-0.4-0.2-0.8-0.3-1.1c-0.2-0.9-0.4-1.8-0.8-2.6c-0.2-0.5-0.6-1.1-1-1.5c-1-0.9-2.3-0.4-2.6,0.8c-0.2,1-0.3,2-0.1,2.9
				c0.4,2.2,0.9,4.4,1.5,6.6c0.5,1.8,2.4,2.4,3.8,1.2c1.1-1,2.1-2,3.2-3.1c0.3-0.3,0.6-0.5,1-1C134.8,304.2,134.2,308.7,133.7,313.2
				z M113.9,294.4c-0.2-1.1-0.3-2-0.5-2.9c-0.2-1.1-0.5-2.1-1.2-2.9c-0.5-0.6-1-0.9-1.8-0.7c-0.8,0.2-1.1,0.7-1.3,1.4
				c-0.1,0.6-0.2,1.3-0.1,1.9c0.4,2.7,0.9,5.3,1.4,8c0.1,0.5,0.3,0.9,0.5,1.3c0.8,1.4,2.3,1.8,3.7,0.9c0.7-0.5,1.3-1,1.9-1.6
				c2.1-2.2,3.7-4.7,5.4-7.3c0.2-0.4,0.4-0.8,0.5-1.2c0.2-0.8,0.1-1.6-0.6-2.2c-0.7-0.6-1.4-0.6-2.2-0.3c-0.4,0.1-0.7,0.3-1.1,0.5
				c-1.6,1-2.8,2.3-3.7,3.8C114.5,293.5,114.3,293.9,113.9,294.4z M94.6,290.5c-0.2-0.6-0.3-1-0.4-1.4c-0.4-1.4-0.8-2.8-1.3-4.1
				c-0.3-0.9-1-1.2-1.7-1.2c-0.7,0.1-1.3,0.6-1.4,1.5c-0.1,0.8-0.1,1.6,0,2.4c0.5,2.9,1.2,5.8,2.8,8.3c0.9,1.5,1.9,1.7,3.2,0.6
				c1.1-1,2.2-2.1,3.3-3.1c1-1,2-2.1,2.9-3.2c0.8-0.9,1.3-2,1.5-3.2c0.3-2.2-1.3-3.5-3.3-2.6c-0.7,0.3-1.4,0.8-1.9,1.3
				c-1,1.1-1.9,2.4-2.8,3.5C95.1,289.7,94.9,290,94.6,290.5z"/>
			<path class="st19" d="M355.3,263.9c2.7,10,5.3,19.8,8,29.7c-16.6,10.9-34.9,17.6-54.1,22.5c-1-8.4-2.1-16.7-3.1-25.1
				c9.4-2,18.1-5.5,26.5-10C341,276.6,348.5,270.9,355.3,263.9z M318.5,298.7c-0.1,0-0.2,0.1-0.3,0.1c-0.2-0.3-0.4-0.6-0.7-0.8
				c-0.7-0.8-1.5-1.6-2.3-2.3c-0.5-0.4-1.1-0.8-1.7-1c-1.4-0.5-2.6,0.5-2.4,2c0.1,0.6,0.2,1.2,0.5,1.7c1.1,1.9,2.3,3.8,3.6,5.6
				c0.6,1,1.5,1.7,2.6,2.3c1.7,0.8,3.1,0.4,4.1-1.2c0.2-0.3,0.4-0.7,0.6-1.1c0.7-2.1,1.5-4.2,2.1-6.3c0.3-0.9,0.3-2,0.4-2.9
				c0.1-1.1,0-2.2-0.5-3.3c-0.7-1.3-2-1.6-3-0.5c-0.3,0.3-0.6,0.7-0.9,1.1c-1.1,1.7-1.6,3.5-1.9,5.5
				C318.7,298,318.6,298.4,318.5,298.7z M335.7,292.5c-0.9-0.9-1.5-1.8-2.3-2.4c-0.6-0.5-1.3-1-2-1.2c-1.5-0.5-2.7,0.7-2.4,2.3
				c0.1,0.5,0.3,0.9,0.5,1.3c1,1.7,2.1,3.2,3.7,4.3c1.2,0.9,2.6,1.7,4,2.3c1.5,0.7,2.7,0.1,3.5-1.3c0.4-0.8,0.8-1.6,0.9-2.4
				c0.4-2.1,0.7-4.2,0.9-6.4c0.1-0.9,0-1.9-0.2-2.8c-0.1-0.5-0.3-1.1-0.6-1.6c-0.8-1.4-2.3-1.6-3.5-0.5c-0.5,0.5-0.9,1-1.1,1.6
				c-0.4,1.1-0.8,2.3-1,3.5C335.9,290.1,335.8,291.2,335.7,292.5z M350.7,285.5c-0.6-0.7-1.1-1.2-1.6-1.8c-0.7-0.7-1.5-1.2-2.4-1.4
				c-0.9-0.2-1.8-0.1-2.4,0.6c-0.7,0.7-0.7,1.6-0.2,2.5c0.6,1,1.2,2,2,2.8c1.6,1.4,3.4,2.8,5.2,4c1.7,1.2,3.4,0.4,3.9-1.6
				c0-0.2,0.1-0.3,0.1-0.5c1.2-3.2,1.3-6.4,1-9.8c-0.1-0.7-0.3-1.3-0.6-1.9c-0.3-0.8-0.9-1.3-1.8-1.3c-0.9,0-1.5,0.6-1.8,1.3
				c-0.4,1-0.7,1.9-0.9,3C351,282.7,350.9,284,350.7,285.5z"/>
		</g>
		<g>
			<path class="st35" d="M142.4,291.9c0.7-9.4,1.3-18.7,2-28.1c1.4,0.1,2.7,0.2,4,0.4c6.1,0.8,12.2,1.6,18.2,2.4
				c9.3,1.2,18.7,2.1,28,2.6c9.3,0.5,18.6,1,27.9,0.6c7.7-0.3,15.4-0.8,23.1-1.3c5.8-0.4,11.6-0.9,17.3-1.8
				c9.3-1.5,18.6-3.2,27.5-6.4c1.6-0.6,3.3-1.3,5-2c1.4,9.7,2.2,19.4,3,29.1c-0.3,0.2-0.6,0.3-0.8,0.5c-6.5,3-13.3,5.2-20.3,7
				c-9.5,2.5-19.2,4-29.1,4.7c-12.7,1-25.5,1.2-38.3,0.9c-15.5-0.4-30.9-2-46.2-4.3c-5.4-0.8-10.8-1.7-16.2-2.7
				c-1.3-0.2-2.6-0.7-3.9-1C143.3,292.3,142.9,292.1,142.4,291.9z M264.6,294.6c0.3-0.2,0.6-0.3,0.9-0.5c0.3-0.3,0.6-0.6,0.9-1
				c1.2-1.5,2.8-2.5,4.7-2.8c0.5-0.1,0.9-0.2,1-0.7c0.1-0.6-0.3-0.8-0.7-1.1c-0.9-0.4-1.7-0.8-2.6-1.3c-1.7-0.9-2.9-2.2-3.7-3.9
				c-0.5-1.3-0.9-1.5-2.3-1.4c-1,0.1-2.1,0.2-3.1,0.2c-1.7,0.1-3.1-0.5-4.3-1.6c-0.4-0.4-0.7-0.7-1.1-1.1c-0.7-0.6-1.2-0.5-1.8,0.1
				c-1,1-2.1,2.1-3.1,3.1c-0.7,0.8-0.7,1.3,0.1,2c0.6,0.5,1.2,1,1.8,1.5c1.6,1.4,2.9,3,3.4,5.1c0.2,0.7,0.1,1.4,0.2,2.1
				c0.2,1.1,0.8,1.4,1.8,0.9c0.5-0.3,0.9-0.6,1.4-0.9c1.9-1.1,4.3-1,5.7,0.6C263.9,294.3,264.3,294.4,264.6,294.6z M160.4,280.2
				c0,0.4,0.1,1,0.7,1.2c0.6,0.3,1-0.1,1.5-0.5c0.7-0.7,1.4-1.3,2.1-2c0.7-0.6,1.5-0.9,2.4-0.9c1.1,0,2.2,0.3,3.1,1
				c1.2,0.9,1.4,0.9,2.6-0.1c0.8-0.7,1.7-0.9,2.7-0.7c1.1,0.2,2.2,0.5,3.2,0.8c0.3,0.1,0.6,0.2,0.9,0.3c0.8,0.1,1.2-0.3,1.2-1.1
				c0-0.5-0.1-0.9-0.2-1.4c-0.4-1.8-0.7-3.5-0.2-5.3c0.3-1.3-0.3-1.8-1.6-1.6c-1,0.1-2,0.3-3.1,0.5c-2,0.2-3.8-0.1-5.3-1.6
				c-1.1-1-1.7-0.9-2.7,0.3c-0.5,0.6-1,1.3-1.6,1.9c-1.2,1.3-2.7,2-4.6,1.7c-1.3-0.2-1.8,0.5-1.4,1.7c0.5,1.2,0.6,2.4,0.5,3.6
				C160.5,278.7,160.4,279.4,160.4,280.2z M208.8,291.8c-0.1,0-0.1,0-0.2,0c0,0.5,0,1,0,1.4c0,0.6,0.4,0.9,0.9,0.9
				c0.3,0,0.5-0.1,0.8-0.1c1.8-0.4,3.2,0.2,4.2,1.7c0.4,0.6,0.8,1.2,1.2,1.8c0.6,0.9,1.2,1,2,0.3c2.5-2.3,5.4-3.2,8.7-3.4
				c1.6-0.1,3.3-0.1,4.9-0.2c0.5,0,1.1-0.1,1.2-0.7c0.1-0.6-0.3-0.9-0.8-1.1c-2.5-1-4-2.9-5-5.3c-0.2-0.4-0.3-0.9-0.6-1.3
				c-0.5-0.8-1.2-0.9-1.9-0.3c-0.4,0.3-0.6,0.7-1,1.1c-1.1,1.2-2.3,2.2-3.9,2.7c-1.5,0.5-2.6,0.1-3.5-1.3c-0.2-0.3-0.4-0.7-0.6-1
				c-0.4-0.6-1-0.7-1.6-0.3c-0.3,0.2-0.5,0.4-0.8,0.6c-1.1,0.7-2.2,1.2-3.5,0.6c-0.8-0.4-1.6,0.4-1.3,1.3
				C208.5,290,208.6,290.9,208.8,291.8z M201.7,278.2c0-0.1,0-0.3,0-0.5c0-1.2-0.4-1.6-1.6-1.5c-0.2,0-0.4,0.1-0.6,0.1
				c-2.1,0.2-3.5-0.9-3.7-3.1c0-0.3,0-0.6-0.1-0.8c-0.2-1.2-0.8-1.6-1.9-1.1c-0.5,0.2-1,0.5-1.5,0.7c-1,0.5-2,0.6-3.1,0.3
				c-0.6-0.2-1.2-0.4-1.8-0.6c-0.5-0.2-1-0.3-1.4,0.2c-0.4,0.5-0.1,1,0.2,1.4c0.5,0.7,1.1,1.4,1.6,2.1c0.7,1,1,2.1,0.7,3.4
				c-0.3,1.4,0.1,1.8,1.5,1.8c0.8,0,1.7,0,2.5,0.2c1.1,0.2,2,0.8,2.2,2.1c0,0.2,0.1,0.4,0.1,0.6c0.1,0.5,0.1,1.1,0.6,1.3
				c0.6,0.3,1-0.1,1.5-0.5c0.5-0.4,1-0.7,1.5-1c1-0.6,2-0.9,3.1-0.4c0.1,0.1,0.3,0.1,0.5,0.1c0.5,0.1,0.9,0,1.2-0.4
				c0.3-0.4,0.2-0.8,0-1.2c-0.2-0.3-0.4-0.6-0.6-0.9C201.8,279.9,201.5,279.1,201.7,278.2z M259.9,274.8c0.6,0.5,0.6,1,0.4,1.5
				c-0.3,0.6-0.8,1-1.4,1.2c-1.6,0.4-3-1-2.9-2.7c0.2-1.7,1.5-2.9,3.4-2.8c0.9,0,1.8,0.3,2.7,0.5c2.1,0.5,4.1,1.2,6.2,1.6
				c4.6,0.9,8.9,0.2,13.1-2c1-0.5,1.9-1.3,2.7-2.1c0.9-0.8,1.3-2,1.6-3.2c0.1-0.6-0.1-1.1-0.6-1.2c-0.6-0.1-0.9,0.3-1,0.8
				c0,0.2-0.1,0.3-0.1,0.5c-0.3,1.3-1.1,2.3-2.2,3c-1.1,0.7-2.2,1.2-3.4,1.7c-3.9,1.4-7.8,1.5-11.7,0.4c-1.6-0.5-3.3-1-4.9-1.4
				c-1.2-0.3-2.3-0.4-3.5-0.2c-3.3,0.7-4.9,4.5-3,7.3c0.9,1.3,2.1,1.8,3.6,1.6c1.5-0.1,2.6-0.9,3.2-2.3c0.5-1.1,0.3-2.2-0.5-3.1
				c-1-1.1-2.9-0.7-3.4,0.6c-0.2,0.5-0.1,0.9,0.3,1.2c0.4,0.3,0.8,0.2,1.1-0.1C259.5,275.2,259.7,275,259.9,274.8z M159,281.1
				c0.1-2.9-0.9-4.8-3.1-6c-2-1.1-4.2-0.6-5.7,1.2c-1.5,1.9-1.6,4.8-0.2,6.9c1.2,1.8,3.4,2.6,5.6,1.9C157.9,284.5,159,283,159,281.1
				z M181.8,282.4c-1.7,0-3.1,0.4-4.4,1.2c-1.2,0.8-2,2-2.3,3.5c-0.5,2.8,1.4,5.3,4.1,5.4c1.1,0,2.1-0.2,3.1-0.7
				c0.8-0.4,1.5-1.1,1.7-2.1c0.2-1-0.1-1.8-0.9-2.4c-0.7-0.6-1.6-0.5-2.4-0.2c-0.4,0.2-0.6,0.5-0.5,0.9c0.1,0.5,0.4,0.7,0.9,0.7
				c0.1,0,0.2,0,0.4-0.1c0.4-0.1,0.8-0.1,0.9,0.3c0,0.3-0.1,0.8-0.3,0.9c-0.6,0.3-1.2,0.6-1.8,0.8c-2.1,0.4-3.8-1.3-3.3-3.4
				c0.3-1.2,1-2,2-2.5c2.1-1.1,4.1-1,5.9,0.6c1,0.8,1.8,1.8,2.6,2.8c1,1.2,1.8,2.4,2.7,3.6c1.2,1.7,2.9,2.8,4.6,3.9
				c0.5,0.3,1,0.2,1.3-0.2c0.3-0.4,0.1-0.9-0.4-1.2c-0.3-0.2-0.7-0.4-1-0.7c-1.4-0.9-2.6-2-3.6-3.4c-0.7-1-1.4-2-2.2-3
				c-0.7-0.8-1.3-1.7-2.1-2.4C185.2,283.4,183.6,282.4,181.8,282.4z M293.3,265c-0.2-0.2-0.3-0.5-0.6-0.6c-0.2-0.1-0.6,0-0.9,0.1
				c-0.3,0.2-0.4,0.5-0.6,0.8c-0.6,0.9-1.1,1.7-1.7,2.6c-0.5,0.7-1.2,1.4-2.1,1.6c-0.6,0.2-1,0.6-1.1,1.3c-0.2,0.9-0.7,1.5-1.4,2
				c-0.3,0.2-0.6,0.5-0.8,0.7c-0.5,0.6-0.3,1.4,0.5,1.6c0.3,0.1,0.7,0.1,1.1,0.2c1.1,0.1,2,0.6,2.9,1.3c1.5,1.2,1.8,1.2,2.7-0.5
				c0.5-0.9,1.1-1.8,2.3-2.2c1.2-0.4,1.4-0.9,0.9-2.1c-0.4-0.7-0.8-1.5-1.1-2.2c-0.6-1.2-0.8-2.5-0.2-3.8
				C293.2,265.6,293.2,265.4,293.3,265z M234.1,283.9c1.1-0.2,2.5-0.4,4-0.7c0.6-0.1,0.8-0.6,0.7-1.1c-0.2-0.5-0.5-0.7-1-0.6
				c-0.6,0.1-1.3,0.2-1.9,0.4c-2.5,0.6-4.8,0-6.9-1.4c-0.7-0.5-1.4-1-2-1.7c-1-1-1.8-2.2-2.8-3.3c-1-1.1-2.1-2.3-3.3-3.3
				c-1.4-1.2-3.1-1.3-4.8-0.6c-1.8,0.7-2.8,2.2-2.7,4.1c0.1,1.5,1.6,3.5,3.1,3.8c0.5,0.1,1.1,0.1,1.6,0c1.4-0.3,2.3-1.7,1.9-2.9
				c-0.1-0.5-0.4-0.9-1-0.8c-0.6,0.1-0.7,0.5-0.7,1c0,0.9-0.6,1.4-1.4,1c-0.5-0.2-1-0.7-1.3-1.1c-0.9-1.2-0.6-2.6,0.8-3.3
				c1.2-0.6,2.5-0.7,3.6,0.3c1,0.9,2,1.9,2.9,3c1.1,1.2,2.1,2.6,3.3,3.8C228.2,282.4,230.7,283.7,234.1,283.9z M160.8,286.5
				c-0.1,2.4,2,4.6,4.3,4.7c2.4,0.1,4.5-2.2,4.6-4.9c0-2.2-2.1-4.2-4.4-4.3C162.6,282,160.9,283.7,160.8,286.5z M209.5,278.8
				c-1.7,0-3.2,1.2-3.9,3c-0.3,0.9-0.2,1.7,0.3,2.5c1.2,1.6,3.3,2.6,5.7,1.5c1.2-0.5,1.8-1.5,1.8-2.8
				C213.5,280.8,211.6,278.8,209.5,278.8z M201.5,284.5c-1.6,0.1-3.5,1.6-3.8,3.1c-0.1,0.3-0.1,0.6-0.1,0.9c0.2,1.6,1.1,2.9,2.6,3.6
				c1.6,0.7,3.3,0.1,4.2-1.4c1-1.8,0.4-4.5-1.3-5.6C202.7,284.8,202.1,284.7,201.5,284.5z M277.2,286.3c0,0.7,0.2,1.1,0.8,1.3
				c0.1,0,0.2,0.1,0.3,0.1c1.3,0.3,2,1.2,2.3,2.5c0.1,0.4,0.2,0.8,0.3,1.1c0.3,0.9,0.6,1.3,1.1,1.2c0.5,0,0.8-0.4,0.9-1.4
				c0.1-1.1,0.5-2.2,1.1-3.1c0.2-0.3,0.4-0.5,0.5-0.8c0.4-0.8,0.3-1.4-0.5-1.8c-1.3-0.6-2.2-1.7-2.9-2.9c-0.2-0.4-0.5-0.7-0.8-1
				c-0.9-0.7-1.4-0.6-1.8,0.5c-0.4,1.2-0.8,2.3-1.1,3.5C277.2,286,277.2,286.2,277.2,286.3z M242,278.7c0,2.2,1.2,3.7,3,3.7
				c2,0,3.6-1.7,3.5-3.7c0-1.9-1.4-3.4-3.2-3.4C243.4,275.3,242,276.7,242,278.7z M245.3,294.6c-0.5,0.9-1.1,1.1-1.8,0.9
				c-0.7-0.2-1.4-0.5-1.9-0.9c-0.8-0.7-1.4-1.5-2.1-2.2c-0.7-0.7-1.2-1.6-1.9-2.3c-0.7-0.6-1.5-1-2.3-1.5c-0.4-0.2-0.8-0.1-1,0.3
				c-0.3,0.4-0.2,0.8,0.3,1.2c0.1,0,0.1,0.1,0.2,0.1c1.3,0.5,2.1,1.6,2.9,2.6c0.8,1,1.6,1.9,2.4,2.8c0.9,0.9,2,1.5,3.2,1.7
				c1.1,0.2,2.1,0,2.9-0.8c0.7-0.7,0.9-1.7,0.5-2.5c-0.4-0.9-1.6-1.4-2.5-1.3c-0.5,0.1-0.8,0.3-0.8,0.9c0,0.5,0.3,0.7,0.7,0.8
				C244.4,294.3,244.7,294.4,245.3,294.6z M152.8,266.6c-1.2,0.1-2.6,0.6-3.5,1.7c-1.3,1.5-2.5,3.2-3.8,4.7c0,0.1-0.1,0.1-0.1,0.2
				c-0.2,0.4-0.2,0.8,0.2,1.1c0.4,0.3,0.8,0.2,1.1-0.1c0.2-0.2,0.4-0.5,0.6-0.7c0.9-1.2,1.7-2.4,2.7-3.5c0.5-0.6,1.1-1.1,1.7-1.4
				c0.5-0.2,1.1-0.2,1.7-0.1c0.4,0,0.8,0.3,0.7,0.8c-0.1,0.4-0.7,0.7-1.2,0.5c-0.3-0.1-0.5-0.3-0.8-0.3c-0.5-0.1-0.9,0.1-1,0.6
				c-0.2,0.4,0,0.8,0.4,1c0.8,0.4,1.7,0.7,2.6,0.4c0.9-0.4,1.7-1,1.7-2.1c0.1-1.1-0.4-1.8-1.4-2.3C154,267,153.4,266.8,152.8,266.6z
				 M245.8,284.9c-1.7,0-3,1.2-3,2.7c0,1.9,1.3,3.3,2.9,3.3c1.8,0,3.1-1.3,3.1-3C248.8,286.2,247.5,284.9,245.8,284.9z M274.6,283.7
				c1.5,0,2.8-1.6,2.8-3.2c-0.1-1.4-1.4-2.6-2.8-2.6c-1.5,0-2.8,1.4-2.8,2.9C271.9,282.4,273.2,283.7,274.6,283.7z M279.2,278.3
				c0,1.4,1.3,2.7,2.8,2.7c1.4,0,2.5-1.1,2.5-2.5c0-1.5-1.3-2.9-2.7-2.9C280.4,275.5,279.2,276.8,279.2,278.3z"/>
			<path class="st35" d="M341.4,220.2c2.8,8.5,5.5,16.9,8.3,25.4c-0.2,0.2-0.4,0.4-0.6,0.6c-2.5,2.5-5,5-7.6,7.4
				c-9.8,9.3-21.2,15.9-34.1,19.9c-0.9,0.3-1.9,0.5-2.9,0.7c-0.2,0.1-0.5,0-0.8,0.1c-1.2-8.6-2.4-17.2-3.6-25.8
				c0.3-0.1,0.5-0.2,0.7-0.2c6.7-1.6,12.8-4.4,18.5-8.3c6.2-4.3,11.8-9.4,17.1-14.9c1.4-1.4,2.8-2.9,4.1-4.3
				c0.2-0.2,0.4-0.5,0.5-0.8C341.2,220.1,341.3,220.1,341.4,220.2z M321.3,245.2C321.3,245.2,321.3,245.1,321.3,245.2
				c-0.3-0.1-0.6-0.1-1-0.1c-1.9-0.1-2.2,0.2-1.9,2.1c0.3,1.9-0.2,3-1.8,4c-0.5,0.3-1,0.6-1.5,0.9c-1.2,0.7-1.3,1.4-0.2,2.4
				c1.5,1.3,2,2.9,1.6,4.8c-0.2,1.1-0.5,2.3-0.7,3.4c-0.1,0.5-0.1,1,0.5,1.2c0.6,0.2,0.9-0.1,1.2-0.5c0.4-0.6,0.8-1.3,1.4-1.8
				c1.6-1.5,3.1-1.7,5-0.5c0.4,0.3,0.8,0.7,1.3,0.9c0.3,0.1,0.7,0.1,1-0.1c0.2-0.1,0.2-0.5,0.3-0.8c0-0.2-0.1-0.4-0.2-0.5
				c-0.9-1.8-0.7-3.5,0.4-5.1c0.4-0.6,0.8-1.1,1.3-1.6c0.7-0.9,0.7-1.4-0.2-1.9c-0.6-0.4-1-0.9-1.2-1.6c-0.3-1.1-0.1-2.2,0.3-3.3
				c0.3-0.8,0.6-1.6,0.8-2.5c0.1-0.5,0-0.9-0.4-1.2c-0.4-0.3-0.9-0.3-1.3,0c-0.2,0.1-0.4,0.3-0.5,0.5c-0.8,1-1.8,1.5-3.1,1.3
				C321.8,245.1,321.6,245.2,321.3,245.2z M336.9,248.4c0-2.3-1.3-3.8-3-4.2c-1-0.3-1.9-0.1-2.7,0.6c-1.1,0.9-1.8,2.1-1.4,3.6
				c0.4,1.5,1.3,2.7,2.9,3.2c0.8,0.2,1.6,0.1,2.3-0.3C336.2,250.4,336.9,249.3,336.9,248.4z M339.5,237.2c0-2.1-1.7-3.9-3.6-3.9
				c-1.9,0-3.6,1.7-3.5,3.6c0,2.1,1.5,3.6,3.4,3.7C337.9,240.6,339.5,239.1,339.5,237.2z M306.7,261.4c1.2,0,2.2-1.1,2.2-2.2
				c0-1.2-1-2.1-2.1-2.1c-1.2,0-2.1,1-2.1,2.3C304.7,260.5,305.6,261.4,306.7,261.4z"/>
			<path class="st35" d="M142.6,244.4c-0.9,8.6-2.1,17.2-3.3,25.8c-7.7-0.4-38.9-12.3-46.9-17.9c0-0.9,6.8-23.9,7.5-25.4
				C113.1,234.9,127.4,240.6,142.6,244.4z M111.7,246.3C111.7,246.3,111.7,246.3,111.7,246.3c0,1,0,2,0,3c0,1,0.6,1.3,1.5,1
				c0.3-0.1,0.6-0.3,0.9-0.3c0.8-0.2,1.7-0.5,2.6-0.4c0.9,0.1,1.6,0,2.2-0.7c0.8-0.8,1.8-1.1,2.9-0.8c0.5,0.1,0.9,0.2,1.4,0.3
				c1.1,0.2,1.6-0.2,1.5-1.2c0-1.8,0.4-3.4,1.9-4.7c0.2-0.2,0.3-0.7,0.2-1.1c-0.1-0.2-0.5-0.4-0.9-0.5c-0.7,0-1.4,0-2,0.1
				c-1.2,0.1-2.2-0.2-3-1.1c-1-0.9-1.5-0.9-2.4,0.1c-0.6,0.6-1.1,1.3-1.7,1.9c-1.2,1.2-2,1.3-3.4,0.5c-1.2-0.6-1.7-0.3-1.8,1
				C111.7,244.3,111.7,245.3,111.7,246.3z M116.8,259.6c2.2,0.4,4-1.6,3.7-3.4c-0.1-0.7-0.3-1.4-0.6-2c-1-2-3.4-2.7-5.2-1.6
				c-2,1.1-2.5,3.5-1.2,5.4C114.3,259.2,115.5,259.8,116.8,259.6z M110.7,249.3c0-1.3-0.6-2.3-1.9-2.8c-1.7-0.7-3.3-0.5-4.8,0.5
				c-1.4,0.9-1.7,2.4-1,3.9c0.5,1,1.3,1.7,2.3,2.1C107.7,254,110.7,252,110.7,249.3z M136.5,262.9c0.1-1.5-1.3-3-2.8-3
				c-1.4-0.1-2.7,1.2-2.7,2.7c0,1.5,1.3,3,2.8,3.1C135.2,265.8,136.4,264.5,136.5,262.9z M138,254.9c0-0.9-0.8-1.7-1.8-1.7
				c-1,0-1.8,0.9-1.8,1.8c0,0.9,0.8,1.6,1.9,1.6C137.2,256.6,138,255.8,138,254.9z"/>
		</g>
		<g>
			<path class="st19" d="M146.7,232.7c0.4,0.1,0.7,0.2,1,0.2c2.9,0.9,5.9,1.2,8.9,1.5c12.8,0.9,25.6,1.2,38.4,1.7
				c7.8,0.3,15.7,0.7,23.5,1c11.7,0.4,23.4,0.3,35.1-0.2c5.6-0.2,11.3-0.5,16.9-1.1c7.4-0.7,14.9-1.8,22.1-3.8
				c0.3-0.1,0.6-0.1,1-0.2c0.1,1.5,0.1,2.9,0.2,4.3c0.2,2.5,0,4.8-1.2,7c-0.9,1.7-1.3,3.7-1.9,5.5c-0.7,2.2-1.6,4.4-3,6.4
				c-0.6,0.9-1.4,1.7-2.2,2.5c-1.1,0.9-2.3,1.1-3.7,0.6c-1.4-0.5-2.7-1.1-3.8-2.1c-1.6-1.4-3.1-2.9-4.6-4.3c-1.3-1.3-2.6-2.7-4-4
				c-2.1-1.9-4.6-3.2-7.3-3.9c-2.7-0.7-5.3-0.4-7.8,0.8c-2.9,1.4-5.3,3.4-7.3,5.8c-1.9,2.3-3.7,4.8-5.4,7.2c-1.1,1.4-2,2.9-3.1,4.4
				c-0.2,0.2-0.3,0.4-0.5,0.6c-2.2,2.5-4.3,2.8-7.2,1.1c-1.4-0.9-2.7-2-3.7-3.3c-1.2-1.6-2.4-3.2-3.5-4.8c-1.4-2.1-3-4-4.9-5.7
				c-1.7-1.5-3.7-2.6-6-2.9c-2.1-0.3-4.1,0-6,0.9c-2.5,1.2-4.7,2.9-6.5,5c-1.6,1.9-3.1,3.9-4.6,5.8c-1.1,1.4-2.3,2.9-3.5,4.2
				c-1,1.1-2.3,1.9-3.9,2.2c-2,0.4-3.7-0.1-5.1-1.6c-0.8-0.9-1.6-2-2.2-3.1c-1-1.8-1.7-3.7-2.7-5.5c-1-1.9-2-3.7-3.2-5.4
				c-0.7-1-1.6-1.9-2.5-2.7c-3.1-2.4-6.5-2.8-10.1-1.3c-1.9,0.8-3.6,2-5.1,3.5c-1.5,1.6-2.9,3.4-4.3,5.1c-0.8,1-1.6,2.1-2.4,3.1
				c-0.8,1-1.9,1.7-3.1,2.1c-0.4,0.1-0.8,0.2-1.2,0.2c-1.3,0-1.6-0.3-1.5-1.6c0.6-8.1,1.2-16.3,1.8-24.4
				C146.6,233.3,146.7,233.1,146.7,232.7z M230.1,247.6c0,0.1-0.1,0.2-0.1,0.3c-0.5,0.1-1,0.3-1.5,0.4c-0.8,0.2-1.5,0.4-2.3,0.6
				c-0.7,0.2-1,0.8-0.7,1.4c0.2,0.6,0.7,0.8,1.5,0.6c1.1-0.3,2.3-0.7,3.4-1c0.3-0.1,0.6-0.1,1-0.1c-0.2,0.5-0.3,0.9-0.5,1.2
				c-0.4,0.9-0.8,1.8-1.2,2.7c-0.2,0.6,0,1.1,0.5,1.3c0.5,0.2,1,0.1,1.4-0.4c0.2-0.3,0.3-0.6,0.5-1c0.1-0.3,0.3-0.5,0.5-0.9
				c0.3,0.8,0.5,1.4,0.7,2.1c0.2,0.6,0.8,0.8,1.3,0.6c0.5-0.2,0.8-0.7,0.7-1.3c-0.2-0.8-0.5-1.6-0.7-2.4c-0.1-0.2,0-0.5-0.1-0.9
				c0.7,0.5,1.1,0.8,1.6,1.2c0.5,0.4,1,0.8,1.5,1.2c0.6,0.4,1.2,0.3,1.6-0.2c0.3-0.5,0.2-1-0.3-1.5c-0.3-0.2-0.6-0.4-0.8-0.7
				c-0.8-0.6-1.6-1.3-2.6-2c0.5-0.1,0.8-0.2,1.1-0.3c1.2-0.2,2.4-0.4,3.6-0.6c0.8-0.2,1.1-0.6,1-1.2c-0.1-0.6-0.6-0.9-1.3-0.8
				c-0.9,0.1-1.9,0.3-2.8,0.5c-0.6,0.1-1.2,0.2-2,0.3c0.3-0.7,0.5-1.2,0.6-1.6c0.3-0.7,0.6-1.4,0.8-2.1c0.2-0.7,0-1.2-0.6-1.4
				c-0.6-0.2-1.1,0-1.4,0.7c-0.1,0.2-0.1,0.4-0.2,0.6c-0.3,0.8-0.6,1.6-1,2.4c-0.1,0.2-0.3,0.4-0.5,0.7c-0.1-0.4-0.2-0.6-0.3-0.8
				c-0.3-1-0.5-1.9-0.8-2.9c-0.2-0.7-0.7-1.1-1.3-1c-0.6,0.1-0.9,0.7-0.8,1.4c0,0.3,0.1,0.6,0.2,0.9c0.1,0.4,0.2,0.7,0.3,1.3
				c-0.9-0.6-1.5-1-2.1-1.4c-1-0.6-1.6-0.6-2,0.1c-0.3,0.6-0.1,1.1,0.8,1.7C228.1,246.2,229.1,246.9,230.1,247.6z M280.7,245.8
				c0.1,0.6,0.2,1,0.2,1.4c0,0.9,0,1.8,0,2.7c0,1,0.3,1.5,1,1.5c0.7,0,1-0.4,1.1-1.4c0-0.2,0.1-0.5,0.2-0.9c0.4,0.5,0.7,0.9,1,1.2
				c0.7,0.9,1.3,1.1,1.9,0.6c0.5-0.5,0.5-1-0.2-1.9c-0.6-0.8-1.3-1.6-1.9-2.5c0.6,0,1,0.2,1.5,0.3c0.7,0.3,1.4,0.6,2.1,0.8
				c0.6,0.2,1.2-0.2,1.3-0.7c0.1-0.5-0.1-1-0.6-1.3c-0.3-0.1-0.6-0.2-0.9-0.3c-0.9-0.4-1.9-0.8-2.9-1.3c0.1-0.2,0.1-0.2,0.2-0.2
				c0.6-0.3,1.2-0.6,1.8-1c1-0.5,1.2-1,0.9-1.6c-0.3-0.7-0.9-0.7-1.9-0.2c-0.7,0.3-1.4,0.7-2.1,1c-0.1-0.2-0.1-0.3-0.1-0.4
				c0-1.1,0-2.2,0.1-3.3c0-0.7-0.3-1.1-0.8-1.2c-0.6-0.1-1.1,0.3-1.3,1c-0.1,0.3-0.1,0.6-0.1,1c0,0.9,0,1.7,0,2.6
				c0,0.2-0.1,0.4-0.2,0.7c-0.7-1-1.3-1.8-2-2.6c-0.3-0.4-0.7-0.9-1.2-1.2c-0.3-0.2-0.8-0.2-1.1-0.1c-0.3,0.2-0.4,0.6-0.5,1
				c-0.1,0.2,0.1,0.5,0.1,0.8c-0.2,0-0.3,0-0.4-0.1c-0.2,0-0.3-0.1-0.4-0.2c-0.8-0.4-1.4,0-1.6,0.5c-0.2,0.6,0,1.1,0.8,1.5
				c1.2,0.6,2.5,1.1,3.7,1.7c0.2,0.1,0.4,0.3,0.8,0.5c-0.7,0.3-1.2,0.5-1.7,0.8c-0.6,0.3-1.2,0.6-1.8,0.9c-0.5,0.3-0.6,0.8-0.3,1.3
				c0.2,0.5,0.7,0.7,1.2,0.6c0.3-0.1,0.6-0.2,0.9-0.4C278.3,246.9,279.4,246.4,280.7,245.8z M185.8,251.9c0.1,0.1,0.2,0.2,0.2,0.2
				c0.1,0.3,0.1,0.6,0.2,0.9c0.1,0.4,0.1,0.7,0.2,1.1c0.2,0.6,0.7,0.9,1.2,0.8c0.5-0.1,0.9-0.5,0.9-1.1c0-0.3-0.1-0.6-0.1-0.9
				c-0.1-0.8-0.2-1.6-0.4-2.7c0.4,0.3,0.7,0.5,0.9,0.7c0.6,0.5,1.1,1,1.8,1.4c0.5,0.4,1,0.3,1.4-0.1c0.3-0.4,0.4-1,0-1.4
				c-0.3-0.3-0.7-0.6-1-0.9c-0.3-0.3-0.8-0.5-0.9-1.1c1.2,0,2.4,0,3.5,0c0.3,0,0.6,0,0.9-0.1c0.5-0.2,0.8-0.6,0.7-1.1
				c-0.1-0.5-0.3-0.8-0.8-0.9c-0.4-0.1-0.8,0-1.2,0c-0.9,0-1.8,0-2.9,0c0.4-0.5,0.6-0.8,0.8-1.1c0.5-0.6,1-1.2,1.5-1.8
				c0.4-0.5,0.3-1.1-0.1-1.5c-0.4-0.3-1-0.3-1.4,0.1c-0.2,0.2-0.3,0.3-0.5,0.5c-0.8,0.9-1.6,1.9-2.4,2.8c-0.2,0.2-0.4,0.3-0.7,0.6
				c-0.1-0.6-0.1-0.9-0.1-1.3c0-0.8,0-1.7-0.1-2.5c0-0.7-0.4-1.1-1-1.1c-0.6,0-1.1,0.4-1.1,1c0,0.6,0,1.1,0,1.7
				c0,0.2-0.1,0.5-0.1,0.9c-0.7-0.5-1.2-1-1.7-1.4c-0.6-0.5-1.2-0.5-1.6,0c-0.4,0.5-0.3,1.1,0.2,1.6c0.5,0.5,1,0.9,1.5,1.3
				c0.2,0.2,0.3,0.4,0.6,0.6c-0.4,0.1-0.6,0.1-0.8,0.1c-0.7,0-1.4,0-2.1,0.1c-0.7,0-1.2,0.5-1.2,1.1c0,0.6,0.5,1,1.2,1.1
				c0.6,0,1.1,0,1.7-0.1c0.7-0.1,1.4-0.1,2.3-0.2c-0.3,0.4-0.4,0.6-0.5,0.8c-0.5,0.6-1.1,1.3-1.6,1.9c-0.5,0.7-0.5,1.4,0.1,1.8
				c0.5,0.3,1.1,0.2,1.6-0.5C185.1,252.7,185.4,252.3,185.8,251.9z M153.9,245.8c0.6,0.3,0.9,0.4,1.3,0.6c0.4,0.2,0.8,0.4,1.3,0.6
				c0.6,0.2,1.1,0,1.3-0.5c0.3-0.5,0.1-1.1-0.5-1.4c-0.2-0.1-0.5-0.3-0.7-0.4c-0.7-0.3-1.3-0.7-2.2-1.2c1.1-0.4,1.9-0.7,2.8-1
				c0.6-0.2,1.1-0.4,1.7-0.7c0.5-0.3,0.6-0.7,0.4-1.2c-0.2-0.5-0.6-0.7-1.2-0.6c-0.3,0.1-0.6,0.2-0.9,0.3c-0.8,0.3-1.5,0.5-2.6,0.9
				c0.3-0.6,0.4-0.9,0.6-1.3c0.1-0.3,0.3-0.6,0.4-0.9c0.1-0.5,0-1-0.5-1.2c-0.5-0.2-1-0.1-1.3,0.3c-0.3,0.4-0.4,0.8-0.6,1.1
				c-0.2,0.4-0.4,0.7-0.7,1.3c-0.2-0.4-0.2-0.6-0.3-0.8c-0.2-0.7-0.3-1.4-0.5-2.1c-0.2-0.8-0.7-1.1-1.3-0.9
				c-0.6,0.1-0.9,0.6-0.8,1.4c0.1,0.5,0.3,1.1,0.4,1.6c0.1,0.5,0.4,0.9,0.2,1.6c-0.5-0.3-0.9-0.6-1.4-0.8c-0.7-0.5-1.3-0.5-1.7,0.1
				c-0.4,0.5-0.3,1.2,0.4,1.7c0.3,0.2,0.6,0.4,1,0.7c-0.4,0.2-0.7,0.3-0.9,0.6c-0.2,0.3-0.3,0.8-0.2,1.1c0.1,0.3,0.5,0.6,0.9,0.6
				c0.3,0.1,0.7-0.1,1-0.2c0.3-0.1,0.6-0.1,1-0.1c-0.4,0.8-0.7,1.5-0.9,2.1c-0.2,0.6,0,1.2,0.5,1.4c0.5,0.2,1,0.1,1.3-0.4
				c0.2-0.3,0.4-0.7,0.6-1.1c0.2,0.4,0.3,0.8,0.5,1.1c0.3,0.6,0.9,0.7,1.4,0.5c0.5-0.2,0.6-0.7,0.5-1.3
				C154.2,246.7,154,246.4,153.9,245.8z"/>
			<path class="st19" d="M299.3,243.8c-1.3-5.9-2.6-11.5-3.9-17.1c0,0,0.1-0.1,0.1-0.2c5.4-2.3,10.1-5.9,14.6-9.6
				c6.4-5.4,12.3-11.4,18-17.6c1.2-1.3,2.4-2.7,3.6-4c0.3-0.3,0.5-0.5,1-1c1,2.8,2,5.5,2.9,8.2c-0.9,0.2-1.6,0.3-2.3,0.5
				c-2.4,0.8-4.2,2.2-5.5,4.3c-1.4,2.3-2.1,4.8-1.9,7.4c0.1,2.2,0.5,4.4,0.6,6.6c0.1,1.6,0.2,3.2,0.1,4.8c-0.1,1.4-0.6,2.6-1.5,3.7
				c-1.3,1.5-2.8,1.8-4.3,0.7c-1.4-1-2.7-2.2-4-3.4c-1-1-2-2.1-3-3c-0.9-0.8-1.9-1.4-3.1-1.7c-1.8-0.4-3.3,0-4.6,1.2
				c-1.1,1-1.8,2.1-2.2,3.5c-0.5,2.2-1,4.3-1.4,6.5c-0.5,3-1.1,6-2.4,8.7C299.9,242.8,299.6,243.2,299.3,243.8z"/>
			<path class="st19" d="M106.7,202.3c11.5,9.1,24.4,15,38.4,18.9c-0.7,6.1-1.4,12.3-2.1,18.6c-0.9-0.8-1.1-1.6-1.3-2.5
				c-0.2-1.3-0.4-2.7-0.5-4c-0.2-1.6-0.2-3.3-0.5-4.9c-0.2-1.2-0.5-2.4-0.9-3.4c-1.4-3.4-4.8-4.6-8.1-3c-1.8,0.9-3.2,2.2-4.4,3.8
				c-1.1,1.4-2.1,2.9-3.2,4.3c-0.5,0.7-1.1,1.4-1.8,1.9c-1,0.9-1.9,0.7-2.6-0.4c-0.6-0.9-1-1.9-1-3c-0.1-1.9-0.1-3.7-0.1-5.6
				c-0.1-1.4-0.1-2.8-0.3-4.1c-0.5-2.5-2.3-3.8-4.8-3.7c-1.6,0-3.1,0.4-4.5,1.1c-1.7,0.8-3.4,1.7-5.1,2.6c-0.7,0.3-1.3,0.7-2.2,1.2
				C103.4,214,105.1,208.2,106.7,202.3z"/>
		</g>
		<g>
			<path class="st35" d="M254.2,154.9c0.3-0.2,0.4-0.3,0.5-0.4c7.9-5.4,13.9-12.5,18.7-20.7c4.3-7.4,7.7-15.3,9.4-23.7
				c0.1-0.3,0.2-0.7,0.3-1.1c0.2,0.2,0.3,0.3,0.4,0.5c2.5,5.6,4.9,11.2,6.3,17.2c1.6,6.8,2.1,13.8,0.8,20.7c-1,5-3.3,9.4-7.1,12.8
				c-3.1,2.7-6.7,4.2-10.7,4.3c-4.1,0.1-8.1-0.6-11.7-2.7c-2.3-1.3-4.2-3-5.8-5.1C254.8,156.1,254.5,155.5,254.2,154.9z"/>
			<path class="st35" d="M158,108.2c1.1,8.8,3.4,17.1,7.8,24.9c4.4,7.6,10.2,14.1,17.3,19.6c-1.5,0.5-2.8,1-4.1,1.4
				c-6.2,1.9-12.4,1.9-18.7,0.2c-8-2.1-12.7-9.6-12.3-16.9c0.5-9.2,2.8-17.8,7.7-25.7c0.7-1.2,1.4-2.4,2.1-3.6
				C157.8,108.2,157.9,108.2,158,108.2z"/>
			<path class="st35" d="M220,164.9c5.7,0.1,11.2-0.4,16.7-1.8c5.4-1.4,10.5-3.7,15.3-6.7c0.5,2.2,0.5,4.3,0.1,6.3
				c-0.7,4.2-2.5,8-5.3,11.2c-3,3.5-6.9,5.2-11.4,5.4c-1.2,0.1-2.4,0-3.6-0.2c-3.7-0.6-6.6-2.5-8.7-5.7c-1.5-2.4-2.7-4.9-3.1-7.7
				C220,165.4,220,165.2,220,164.9z"/>
			<path class="st35" d="M185.7,154.5c4.8,3.2,9.7,5.5,14.9,7.2c5.2,1.7,10.6,2.5,16.2,3c-0.2,0.5-0.3,1-0.5,1.4
				c-1,2-2.4,3.7-4.1,5.3c-3,2.8-6.5,4.8-10.6,5.7c-4.4,1.1-8.4-0.2-11.5-3.4c-3.7-3.7-5.7-8.4-5.7-13.7
				C184.5,158.2,185,156.4,185.7,154.5z"/>
		</g>
		<g>
			<path class="st36" d="M284.5,394.7c-9.2,1.2-18.3,1.3-27.4,1c-3-16.8-4.3-33.6-3.2-50.5c7.9-0.6,15.8-1.2,23.8-1.8
				C277.8,360.7,280.5,377.7,284.5,394.7z"/>
			<path class="st36" d="M286.5,394.3c-0.3-1.1-0.5-2.1-0.7-3.1c-2.9-12.2-4.7-24.6-5.7-37.1c-0.3-3.3-0.2-6.7-0.3-10
				c0-0.3,0-0.6,0.1-1c7.8-0.9,15.5-1.9,23.4-2.8c0.1,1.1,0.3,2.2,0.4,3.3c0.7,6.6,1.5,13.1,2.1,19.7c0.4,4.4,1,8.9,0.8,13.3
				c-0.3,6.4-3.3,11.1-8.9,14.3C294.8,392.4,289.6,394,286.5,394.3z"/>
			<path class="st36" d="M154.6,341.7c8.2,0.5,16.2,1.1,24.3,1.6c-0.2,15.9,0.9,31.6,3.7,47.3c-7.8,0.1-15.4,0.2-23.1,0.4
				c-0.3-1.9-0.8-3.6-1-5.4c-0.7-5.6-1.4-11.2-1.9-16.8c-0.7-8.1-1.2-16.2-1.7-24.3C154.8,343.6,154.7,342.7,154.6,341.7z"/>
			<path class="st36" d="M254.8,395.6c-7.9-0.3-15.5-0.9-23.1-1.7c-0.8-2.8-3-45-2.5-48.3c7.4-0.1,14.8-0.2,22.4-0.3
				c0,0.4,0.1,0.8,0,1.2c-0.1,4.2-0.2,8.4-0.2,12.5c0,8.9,0.7,17.7,2,26.5c0.4,2.9,0.8,5.8,1.3,8.7
				C254.7,394.7,254.8,395,254.8,395.6z"/>
			<path class="st36" d="M181.3,343.5c7.5,0.4,15,0.8,22.6,1.3c0,5.2-0.1,10.4,0,15.6c0.2,5.2,0.6,10.3,1.1,15.5
				c0.5,5.1,1.2,10.2,1.8,15.5c-7.4-0.7-14.7-0.9-22-0.8C182.6,384.5,179.8,347.7,181.3,343.5z"/>
			<path class="st36" d="M229.5,393.7c-6.9-0.8-13.6-1.5-20.4-2.2c-2.3-15.4-3.7-30.8-2.9-46.6c3.5,0,6.9,0.2,10.4,0.3
				c3.5,0.1,6.9,0.1,10.4,0.2C227.2,361.6,228.3,377.6,229.5,393.7z"/>
			<path class="st36" d="M139.2,340.5c2.4,0.2,4.6,0.3,6.9,0.5c1.7,0.1,3.4,0.3,5.1,0.4c1.1,0.1,1.3,0.2,1.4,1.3
				c0.2,2,0.4,4,0.5,5.9c0.4,6.1,0.8,12.2,1.2,18.3c0.6,7.7,1.3,15.3,2.8,22.9c0.1,0.3,0.1,0.6,0.1,1c-0.3,0.1-0.6,0.1-0.8,0.1
				c-2.1,0-4.3,0-6.4-0.2c-2.7-0.2-4.8-1.6-6.5-3.7c-1.6-2-2.6-4.3-3.2-6.7c-0.8-3-1.2-6.1-1.4-9.2c-0.7-8.3-0.5-16.5-0.1-24.8
				c0.1-1.7,0.2-3.3,0.2-5C139.1,341.2,139.1,341,139.2,340.5z"/>
			<path class="st36" d="M321.3,314.9c4.7-1.6,9.3-3.1,14.1-4.7c0.2,0.4,0.4,0.8,0.5,1.2c1.9,5.1,3.7,10.3,5.8,15.4
				c2.2,5.3,4.5,10.6,6.8,15.9c0.2,0.5,0.4,0.9,0.7,1.5c-5.3,1.4-10.6,2.7-15.9,3.6c-0.2-0.4-0.3-0.7-0.5-0.9
				c-3.2-8.6-6.5-17.2-9.6-25.8c-0.6-1.7-1.1-3.5-1.6-5.2C321.4,315.5,321.4,315.2,321.3,314.9z"/>
			<path class="st36" d="M81,337.8c2.4-10.9,5.1-21.5,8.7-31.9c5.1,1.4,10.2,2.7,15.4,4.1c-3.2,10.3-4.8,20.9-6.6,31.6
				C92.6,340.5,86.8,339.5,81,337.8z"/>
			<path class="st36" d="M363,338.6c-3.8,2.3-7.7,3.8-11.8,5c-5.4-11.1-9.7-22.5-13.8-34.1c4.1-1.8,8.2-3.7,12.3-5.6
				C353,315.8,357.5,327.3,363,338.6z"/>
			<path class="st36" d="M107.2,310.5c4.5,0.9,9,1.8,13.5,2.7c-1.2,5-2.4,10-3.4,15c-1,5-1.6,10.1-2.5,15.3
				c-4.8,0.1-9.5-0.7-14.2-1.6C100.5,338.2,105.6,313.5,107.2,310.5z"/>
			<path class="st36" d="M364.8,337.5c-0.2-0.3-0.3-0.4-0.4-0.6c-4.9-10.2-9.1-20.7-12.2-31.6c-0.2-0.6-0.3-1.2-0.5-1.8
				c-0.1-0.5,0-0.8,0.4-1.1c3.8-2.2,7.7-4.3,11.6-6.5c0.1,0.3,0.3,0.6,0.3,0.9c1.8,7,3.6,13.9,5.2,20.9c0.6,2.7,0.9,5.5,1.2,8.2
				c0.4,3.5-0.7,6.6-3.2,9.1C366.7,335.9,365.8,336.6,364.8,337.5z"/>
			<path class="st36" d="M87.7,305.2c-3.6,10.4-6.3,21-8.7,31.8c-2.1-0.9-3.9-1.9-5.3-3.5c-2.2-2.4-3.1-5.2-3.3-8.4
				c-0.2-3.1,0.3-6.1,1.2-9.1c1.5-5,3.2-9.9,4.8-14.9c0-0.1,0.2-0.3,0.2-0.4C80.3,302.3,83.9,303.7,87.7,305.2z"/>
			<path class="st36" d="M319.2,315.5c3.4,11,7.7,21.5,11.7,32.3c-1.5,0.2-3,0-4.4-0.3c-3.7-0.8-6.6-2.8-8.9-5.8
				c-1.8-2.3-3.1-4.8-4.2-7.4c-2.1-5.1-3.2-10.4-3.9-15.8c0-0.1,0-0.2,0.1-0.3C312.7,317.3,315.9,316.4,319.2,315.5z"/>
			<path class="st36" d="M123,313.5c3.5,0.6,6.9,1.2,10.4,1.8c-0.1,0.8-0.1,1.6-0.2,2.3c-0.5,4.1-0.9,8.3-1.9,12.4
				c-0.4,1.6-0.9,3.3-1.7,4.8c-2.4,5.1-6.6,7.8-12.1,8.5c-0.1,0-0.2,0-0.4-0.1C118.3,333.2,120,323.3,123,313.5z"/>
		</g>
		<g>
			<path class="st8" d="M290.6,154c0.1-0.2,0.1-0.4,0.2-0.6c1.5-3.1,2.1-6.4,2.4-9.8c0.7-8.3-0.6-16.3-3.3-24.1
				c-1-2.9-2.3-5.8-3.4-8.6c-0.1-0.3-0.2-0.6-0.4-1c0.4,0.1,0.7,0.2,1,0.3c5.8,2.2,11.1,5.2,15.5,9.7c2,2.1,3.9,4.3,5.9,6.4
				c0.6,0.6,0.6,1.2,0.2,1.9c-4.4,9.4-10.3,17.7-17.3,25.3c-0.1,0.1-0.3,0.3-0.4,0.4C290.8,154,290.7,154,290.6,154z"/>
			<path class="st8" d="M154,153.9c5.5,3.2,11.5,3.9,17.8,3.6c3.5-0.2,6.9-1.1,10.2-2.3c0.3-0.1,0.6-0.2,0.9-0.3
				c0.1,0,0.1,0,0.3,0.1c-2.3,8.3,0.7,15.1,6.3,21.3c-5.9-1.6-11.3-3.8-16.5-6.7C165.8,165.6,157.3,158.6,154,153.9z"/>
			<path class="st8" d="M155.8,107.1c-0.5,0.9-1,1.9-1.6,2.8c-4.4,7-7.1,14.6-8,22.9c-0.3,3-0.7,5.9-0.1,8.9
				c0.1,0.6,0.2,1.1,0.2,1.8c-0.2-0.3-0.4-0.6-0.6-0.9c-4.4-7.7-7.1-16-8.4-24.7c-0.1-0.7,0.1-1.2,0.7-1.6c4.7-4.1,10.1-6.9,16-8.8
				c0.6-0.2,1.2-0.4,1.8-0.5C155.7,107,155.8,107,155.8,107.1z"/>
			<path class="st8" d="M243.2,179.5c7.5-4.7,10.7-11.7,11.4-20.3c2.9,3.1,6.3,5.3,10.3,6.4c4,1,8,1.3,12.2,0.4
				C271.7,171.2,251,179.5,243.2,179.5z"/>
			<path class="st8" d="M203.2,178.9c6.5-2.1,11.4-5.8,15-11.6c0.8,3.1,2.1,5.7,3.8,8c1.7,2.4,4.1,4.1,6.9,5.2
				C226.8,181.3,206.8,180.1,203.2,178.9z"/>
		</g>
		<g>
			<path class="st19" d="M210.7,162c-7.2-1.1-13.9-3.3-20.1-6.9c1-3,8.8-15.3,11.3-17.8c2.1,0.8,4.1,1.8,6.2,2.5
				c2.1,0.7,4.3,1.1,6.4,1.7c-0.7,3.4-1.6,6.7-2.2,10.1C211.6,154.9,211.2,158.4,210.7,162z"/>
			<path class="st19" d="M252.3,153.5c-2.3-2.4-11.4-14.3-12.5-16.4c1.3-1.3,2.7-2.5,3.9-3.9c1.2-1.3,2.3-2.8,3.5-4.3
				c6.8,3.1,13.3,6.7,19.1,11.5C264.2,144,256.3,151.5,252.3,153.5z"/>
			<path class="st19" d="M191.2,127.8c2.6,3.2,5.5,5.9,8.8,8.1c-4.2,5.7-8.2,11.5-11.5,18c-5.3-3.3-10-7.4-14-12.2
				C179.7,136.6,185.6,132.5,191.2,127.8z"/>
			<path class="st19" d="M253.9,117.5c7.4,1.9,15,3.2,22.1,6.7c-2.3,5.2-5,9.9-8.3,14.6c-5.9-4.8-12.3-8.5-19.2-11.6
				C250.3,123.9,252,120.7,253.9,117.5z"/>
			<path class="st19" d="M276.7,122.1c-6.9-3.4-14.5-4.7-22-6.7c0.1-0.4,0.2-0.6,0.2-0.9c0.6-2.1,1.3-4.2,1.9-6.3
				c0.9-3,2.5-4.2,5.6-4c1.2,0,2.5,0.2,3.7,0.5c4.5,1,8.9,2.1,13.4,3.1c0.5,0.1,0.9,0.2,1.3,0.4
				C280.8,110.8,278.1,119.9,276.7,122.1z"/>
			<path class="st19" d="M216.8,141.7c3.9,0.4,7.7,0.4,11.6-0.1c0.2,3.5,0.3,7,0.6,10.4c0.3,3.4,0.8,6.8,1.7,10.2
				c-5.9,0.9-11.8,0.8-17.8,0.1C213.7,155.3,214.7,148.4,216.8,141.7z"/>
			<path class="st19" d="M232.9,161.8c-1.9-6.8-2.1-13.7-2.2-20.5c2.4-1,4.8-1.9,7.2-2.8c4.1,5.4,8.3,10.9,12.6,16.4
				C245,158.4,239.3,160.6,232.9,161.8z"/>
			<path class="st19" d="M187.5,120.5c0.8,1.9,1.6,3.7,2.4,5.5c-5.6,4.6-11.2,9.2-16.8,13.8c-2.2-1.9-7.3-10.2-8.1-13.3
				C172.1,123.3,179.8,122,187.5,120.5z"/>
			<path class="st19" d="M185.5,111.4c0.4,2.4,0.7,4.7,1.1,7.1c-7.6,1.5-15.3,2.8-22.6,6c-1.5-3.8-2.6-7.6-3.2-11.5
				C163.7,111.8,182.2,110.6,185.5,111.4z"/>
			<path class="st19" d="M185.3,108.9c-4.3,0.1-8.4,0.2-12.5,0.4c-4.1,0.2-8.1,0.7-12.4,1.1c-0.3-1.4-0.5-2.9-0.6-4.6
				c1-0.2,1.9-0.5,2.9-0.6c3.6-0.4,7.1-0.8,10.7-1c1.9-0.1,3.7-0.1,5.6,0c2.2,0.2,4,1.1,5.4,3C184.7,107.7,184.9,108.3,185.3,108.9z
				"/>
		</g>
		<g>
			<path class="st19" d="M147.4,296.5c10,1.9,19.9,3.1,29.9,4.5c-0.1,0.2-0.1,0.3-0.2,0.4c-2.1,1.7-4.1,3.4-6.3,4.9
				c-2,1.5-4.2,2.8-6.3,4.1c-1.1,0.7-1.1,0.7-2.1-0.2c-3.8-3.3-7.5-6.7-11.3-10.1c-1.1-1-2.2-2-3.3-3
				C147.7,297.1,147.6,296.9,147.4,296.5z"/>
			<path class="st19" d="M211.3,303.9c-0.2,0.1-0.5,0.2-0.7,0.4c-2.5,2.1-5,4.3-7.5,6.4c-1.3,1.1-2.7,1.9-4.1,2.8
				c-0.9,0.6-1.7,0.4-2.5-0.3c-2.9-2.8-5.9-5.6-8.8-8.4c-1-0.9-2-1.9-3.1-2.9c8.9,0.6,17.7,1.1,26.4,1.7
				C211.1,303.7,211.2,303.8,211.3,303.9z"/>
			<path class="st19" d="M113.7,265.4c-3.9,2.7-7.1,6.3-11.7,7.9c-0.3-0.5-0.5-0.9-0.7-1.3c-0.8-1.6-1.4-3.3-2.2-4.9
				c-1.7-3.3-3.4-6.6-5.1-9.8c-0.2-0.3-0.4-0.7-0.5-1.1C100.1,259.3,106.7,262.8,113.7,265.4z"/>
			<path class="st19" d="M347.1,252.3c-2.1,6-3.7,12.1-5,18.3c-0.5-0.1-1-0.1-1.4-0.2c-3.3-0.8-6.5-1.5-9.7-2.3
				c-0.9-0.2-1.8-0.4-2.7-0.6c3.3-2.4,6.7-4.6,9.8-7.1C341,257.9,343.9,255.1,347.1,252.3z"/>
			<path class="st19" d="M251.6,302.3c7.6-0.7,15.1-1.9,22.6-3.4c-2.7,4-5.5,7.8-8.7,11.4c-4.7-2.6-9.3-5.2-14-7.7
				C251.5,302.5,251.6,302.4,251.6,302.3z"/>
			<path class="st19" d="M234.6,313.1c-4.7-2.8-9-6.1-13.5-9.2c0-0.1,0-0.1,0-0.2c0,0,0.1-0.1,0.1-0.1c7.3-0.2,14.7-0.4,22-0.6
				C243,304,236.8,311.1,234.6,313.1z"/>
			<path class="st19" d="M138.6,273c-3.9,2.9-7.9,5.5-12.3,7.8c-2.3-4.5-4.5-8.8-6.9-13.5C125.9,269.5,132.1,271.6,138.6,273z"/>
			<path class="st19" d="M298.9,290.7c0.4,3.9,0.8,7.6,1.2,11.6c-5.9-2.2-11.7-4-17.6-5.7c2.7-0.9,5.5-1.7,8.2-2.7
				C293.4,293,296.1,291.9,298.9,290.7z"/>
			<path class="st19" d="M305.2,277c5.2-1.3,10.3-3.1,15.1-5.5c0,1.5-3.1,10.3-4,11.8C315.1,283,306.3,278,305.2,277z"/>
		</g>
		<g>
			<path class="st8" d="M269.1,311c3.1-4.1,6.1-8.1,9.1-12.2c6.5,1.4,19.3,5.4,21.5,6.8C297.3,307.1,273.1,310.9,269.1,311z"/>
			<path class="st8" d="M341.1,273.3c-7,5.1-14.5,8.7-22.4,11.8c-0.1-0.2-0.2-0.3-0.1-0.3c0.9-2.3,1.9-4.6,2.7-7
				c0.8-2.2,1.5-4.5,2.2-6.7c0.4-1.2,0.5-1.4,1.8-1.2c1.6,0.2,3.2,0.3,4.7,0.7c3.5,0.8,7,1.7,10.6,2.5
				C340.7,273.1,340.8,273.2,341.1,273.3z"/>
			<path class="st8" d="M230.6,314.3c-3.2,0.7-25.9,1.1-27.6,0.6c4.2-3.6,8.3-7.1,12.5-10.6C221,307,225.5,311,230.6,314.3z"/>
			<path class="st8" d="M180.6,302.6c4.6,3.7,8.4,8,12.8,11.9c-1.7,0.6-23-0.9-26.2-1.8c0-0.1-0.1-0.2,0-0.2
				C171.9,309.7,176,306,180.6,302.6z"/>
			<path class="st8" d="M104.5,275.5c2-1.4,4-2.7,6-4.1c1.9-1.4,3.7-2.8,5.6-4.3c3.1,4.7,5.1,9.8,7.9,14.9
				C117.1,280.2,110.8,277.9,104.5,275.5z"/>
			<path class="st8" d="M238.3,313.9c3-3.5,5.9-6.9,8.8-10.2c4.9,2.7,9.7,5.4,14.6,8.2C260.6,312.3,241.8,314,238.3,313.9z"/>
			<path class="st8" d="M141.2,308.2c0.3-4.1,0.6-8,0.9-12.2c5.7,5.2,11.3,10.3,17,15.7C153,310.7,147.2,309.4,141.2,308.2z"/>
			<path class="st8" d="M351,249.6c0.2,0.5,0.3,0.8,0.4,1.1c1,3.3,1.9,6.6,3,9.8c0.2,0.6,0.1,1.1-0.3,1.5c-1,1.1-1.9,2.2-3,3.2
				c-1.8,1.6-3.7,3.2-5.5,4.8c-0.1,0.1-0.3,0.2-0.7,0.5C346.4,263.3,348.2,256.5,351,249.6z"/>
			<path class="st8" d="M90.7,257.1c3.4,5.2,5.8,10.5,8.2,16.1c-4.1-1.6-7.8-3.2-11.6-5C88.4,264.6,89.5,261,90.7,257.1z"/>
			<path class="st8" d="M305.7,288.8c-0.4-2.9-0.8-5.8-1.2-8.9c3.8,2.1,7.4,4.1,11,6.1C314.3,286.9,307.8,288.7,305.7,288.8z"/>
			<path class="st8" d="M128.1,283c3.5-2.1,6.7-4.1,10.1-6.2c-0.2,2.7-0.7,5.2-1,7.8C134.2,284.4,131.2,283.8,128.1,283z"/>
		</g>
		<g>
			<path class="st36" d="M280.8,260c-14.2,3.7-28.4,5.2-42.9,5.9c0.3-0.3,0.5-0.5,0.7-0.7c1.5-1.4,2.7-3.2,3.8-4.9
				c1.7-2.5,3.5-5,5.3-7.4c1.4-1.9,3.1-3.5,5-4.9c4.3-3.1,7.9-3.8,13.6-0.4c0.8,0.5,1.6,1.2,2.3,1.8c1.2,1.1,2.3,2.2,3.3,3.4
				C275.2,256.6,276.5,257.6,280.8,260z"/>
			<path class="st36" d="M192.1,265.7c0.5-0.4,1-0.8,1.5-1.3c1.2-1.4,2.4-2.8,3.5-4.2c1.6-2,3.1-4,4.7-5.9c1.4-1.7,3.2-3.1,5.2-4.2
				c3.3-1.8,6.5-1.5,9.5,0.7c2,1.4,3.5,3.2,4.9,5.2c0.8,1.1,1.5,2.3,2.3,3.5c1.8,2.6,3.9,4.9,6.7,6.5c0.1,0.1,0.2,0.2,0.3,0.4
				C217.8,267.3,205,266.7,192.1,265.7z"/>
			<path class="st36" d="M181.7,265c-1.8,0.2-28.9-3-32.6-3.9c0.1-0.1,0.2-0.3,0.3-0.3c1.5-0.8,2.6-1.9,3.6-3.2
				c1.2-1.5,2.3-3.1,3.5-4.5c1.1-1.3,2.3-2.5,3.6-3.7c0.9-0.8,1.9-1.4,3-1.9c3.1-1.4,6-1,8.6,1.3c0.7,0.6,1.2,1.2,1.7,2
				c0.9,1.3,1.7,2.6,2.4,4C177.8,258.1,179,261.9,181.7,265z"/>
			<path class="st36" d="M301.7,245.3c0.1-0.4,0.2-0.6,0.3-0.7c1.8-3.2,2.6-6.7,3.1-10.3c0.3-1.8,0.6-3.5,1-5.3
				c0.2-0.9,0.6-1.8,1-2.5c1.1-1.7,2.5-2,4.1-0.8c0.7,0.5,1.4,1.2,2.1,1.8c0.8,0.8,1.6,1.8,2.5,2.6c0.9,0.9,1.9,1.7,2.9,2.5
				c0.6,0.4,1.2,0.8,1.9,1c0.6,0.3,1.3,0.4,2.1,0.6C316.4,239.3,309.7,243.2,301.7,245.3z"/>
			<path class="st36" d="M328.9,228.5c0.1-0.8,0.2-1.4,0.3-2c0.3-2.4-0.1-4.8-0.4-7.2c-0.2-1.7-0.3-3.4-0.4-5.1
				c-0.1-1.9,0.5-3.6,1.5-5.2c0.9-1.5,2.1-2.5,3.7-3.1c0.7-0.2,1.4-0.3,2.1-0.4c0.6-0.1,0.9,0.2,1.1,0.8c1.1,3.4,2.2,6.8,3.4,10.2
				c0.1,0.4,0.2,0.7-0.2,1.1c-3.5,3.6-7.1,7.2-10.6,10.8C329.4,228.3,329.2,228.4,328.9,228.5z"/>
			<path class="st36" d="M140.1,241c-5.9-1.5-11.6-3.5-17.5-5.8c2.7-1.5,4-4,5.7-6.2c0.8-1,1.6-2,2.4-2.9c0.8-0.9,1.8-1.5,2.9-1.9
				c1.3-0.5,2.6-0.1,3.3,1.1c0.4,0.7,0.8,1.6,1,2.4c0.3,1.9,0.5,3.8,0.7,5.7c0.1,1,0.1,2.1,0.3,3.1
				C139.3,237.9,139.7,239.3,140.1,241z"/>
			<path class="st36" d="M117.1,232.7c-0.2-0.1-0.5-0.1-0.8-0.3c-5.2-2.2-10.2-4.9-14.9-8c-0.1-0.1-0.3-0.2-0.4-0.3
				c-0.5-0.4-0.4-0.8,0.1-1.1c2.8-1.4,5.7-2.9,8.5-4.2c1.1-0.5,2.2-0.8,3.4-1c1.8-0.3,2.6,0.3,2.9,2.1c0.1,1,0.1,2.1,0.1,3.1
				c0,1.7-0.1,3.5,0.1,5.2C116.3,229.8,116.8,231.2,117.1,232.7z"/>
			<path class="st36" d="M288.7,257.5c2.8-3.7,4-8,5.3-12.3c0.1,0,0.2,0,0.3,0c0.3,3.2,0.6,6.5,0.9,9.8
				C293,256,291,256.9,288.7,257.5z"/>
		</g>
	</g>
</g>
</svg>
